<svg xmlns="http://www.w3.org/2000/svg" viewBox="0 0 457.76 412.3"><defs><style>.cls-1{fill:#d01515;}.cls-2{fill:#c68300;}.cls-3{fill:#ea9c00;}</style></defs><g id="katman_2" data-name="katman 2"><g id="katman_1-2" data-name="katman 1"><path id="_1_1_" data-name="1 (1)" class="cls-1" d="M252,410.15C188.68,386,124.91,363.32,61.7,338.75c-1.59-.63-4.13-1.51-5.72-2.07-3.66-1.19-5.41-2.3-6.28-4.13-4.7-8.91-5.81-26.08-8.12-37-3.33-16.06-6.75-32.05-10.25-48.11q-14-65.35-28-130.64c-3-14-3.34-16-3.34-18.6C0,93.62,2.23,92,15.43,87c3.89-1.44,20.83-8.27,27.19-10.9,54.62-22.66,110-43.49,164.51-66.39,4.29-1.75,4.29-1.83,8.19-1.19,2.15.32,20.35,2.54,40.47,4.93,34.67,4.13,66.55,8,114.42,13.67,11.77,1.43,35.14,4.22,51.92,6.21C444,36,453.22,37.24,454.41,37.88a8.24,8.24,0,0,1,2.71,2.54c1,1.67,1,2.15-1.59,117.52-1.44,63.69-2.47,117.44-2.31,119.43.32,3.42.24,3.74-1.19,5.72a19.22,19.22,0,0,1-4.14,3.82c-40.23,26.32-79.91,53.43-119.82,80.23-16.86,11.29-33.87,22.5-50.73,33.79-4.3,2.86-13,11.53-18.77,11.37A60.3,60.3,0,0,1,252,410.15Z"/><path id="_1_6_" data-name="1 (6)" class="cls-2" d="M157,381.29c-9.07-3.66-18.05-7.79-27.2-11.29a13.49,13.49,0,0,1-5.24-3.18c-1.36-1.59-1.51-2.07-1.51-5.25s-1.75-24.41-6.68-80.46c-.88-9.63-2.79-32.29-4.38-50.42s-3.18-37-3.65-41.9c-5.57-63.53-5.33-61.14-4.46-63,.72-1.59,3.9-4.06,6.28-4.85.4-.16,3.11-1.43,5.89-2.78,38.24-18.93,77.28-36.34,115.61-55,7-3.42,8.19-3.5,17.65-1.27C286.56,70.4,323.69,79.7,361,88.05c6.75,1.51,7.63,1.91,9.06,4.13,1.11,1.75,1.27,2.55,1.27,7.8,0,4.77,2.47,75,7.48,214.52.79,21.07.71,22.18-.16,23.85-1,1.83-2.07,2.63-23.94,16.78-2.3,1.51-5.72,3.74-7.55,4.85-3.74,2.39-5.09,2.86-7.08,2.39-1.75-.4-4.21-2.87-4.53-4.46-.16-.63-1.35-25-2.62-53.91s-2.94-64.48-3.58-78.95-2.07-44.29-3.1-66.31-2-40.08-2.23-40.4c-1.67-3-19.48-5-22.34-5.64-17-4.06-34.19-7.63-51.21-11.77-6.36-1.51-6.36-1.51-26.24,8.43-33.79,16.94-66.15,33.31-66.55,33.71-.32.24,3.58,80.15,10.58,218.26.4,7.87.63,14.79.47,15.43a8.35,8.35,0,0,1-3.89,5.56C162.6,383.44,162.13,383.36,157,381.29Z"/><path id="_1_2_" data-name="1 (2)" class="cls-3" d="M79.35,314.82c-2.3-2.7-2.22-3.58.88-13C83.73,291,84.92,286.43,86,279.2c1.59-10.9,1.67-26.56.08-26.56-.32,0-1,.72-1.59,1.67a84.81,84.81,0,0,1-5.4,7c-4.93,6-15.11,14.79-20.44,17.81-7.71,4.29-15.82,5.64-18.45,3.1A4.16,4.16,0,0,1,38.88,279c0-2.15,1-3.34,7.32-8,35.3-26.72,20.35-64.73,22.42-102a81,81,0,0,1,10.89-35.78c2.94-5,7.32-8.74,10.42-13.43,3.5-5.33,1.19-8.51.87-14.48-.39-8.82,3.18-17.25,6.44-25.2,3.74-9.07,3.9-11.61,1.43-16.7-4.69-9.46-15-18.29-10.25-29.9a37.12,37.12,0,0,1,8.74-11.45c13.2-10.81,33.56-9.06,49.22-6.75,22,3.18,45.24,10.57,63.85,22.82a58.69,58.69,0,0,1,7.87,6.6c4.22,4.21,4.22,4.21,6.52,3.49A27.24,27.24,0,0,1,237,47.5c3.89.63,3.89.63,5.48-1.35,18.13-22.82,50.89-38.33,78.8-44.29,11.77-2.55,24.09-3.1,35.22,2.38,4.85,2.39,10.82,8,12.65,12,1,2.15,1.27,3.58,1.27,6.68,0,4.53-.48,5.88-5.09,14.23-3.9,7.08-5,10.66-4.06,13,.88,2,3.74,4.77,7.72,7.24,9,5.72,13.27,11.45,13.27,17.65,0,5-1.59,8.35-6,12.88A38.06,38.06,0,0,0,372.51,92c0,.08,1.91,2,4.22,4.21,11,10.5,20,23.46,23.45,38.4,2.07,8.91,2.31,12.88,1.83,28-.71,21.87-.39,28.63,1.67,39.84.72,3.73,9.94,41.26,11.85,48.1,2.31,8.11,3.34,12.8,3.34,15,0,2.07-.24,2.62-1.59,3.74-1.83,1.51-3.58,1.67-5.33.47a126.38,126.38,0,0,1-8.58-9.38c-4.06-4.69-8.91-10.33-11-12.4s-4.69-5.17-6-6.76-2.62-2.94-2.94-2.94c-.56,0-1.35,2.07-3.26,9.22-5,18.61-10.9,35.94-13.2,39-2.15,2.86-5.49,2.79-7-.24-3.34-6.52-4.93-32.68-3.18-53.91.48-6,1.43-15.9,2.15-22.1,2.14-19.4,2.38-26.08,1.19-37a66.76,66.76,0,0,0-17.89-38.8c-10.42-11.22-23.93-17.1-35.86-26.24-2.94-2.23-3.42-2.47-8.75-3.34a130.16,130.16,0,0,1-22.1-5.73c-5.73-2.14-17.18-7.31-21.07-9.46-4.37-2.46-4.61-2.46-7.87.08a26.94,26.94,0,0,1-25.13,4.77c-3.66-1.19-3.9-1.27-5.41-.48-.87.48-7.55,3.18-14.79,6.13-11.29,4.53-22.5,9.38-33.71,14.15-7.87,3.34-19.32,5.72-25,12.48-26,31-20,71.56-22.5,109a195.17,195.17,0,0,1-2.46,20.44c-1.91,11-3.74,17.65-7.24,26.24C106,293.35,97,306.55,90.09,312.35c-4.22,3.58-5.09,4.06-7.4,4.06A3.34,3.34,0,0,1,79.35,314.82Z"/><path class="cls-2" d="M130.64,119.22c7.23-1.35,20.27-6,37.37-13.44,9-3.9,21.87-9.3,28.62-12s12.41-5.24,12.49-5.48c.32-1-12.72-5.73-22-8-22-5.49-45.64-9.54-68.38-5.81-8.35,1.35-11.29,5.25-14.31,12.65-4,9.78-5.09,18.52-2.94,23.13,2,4.3,6.52,7.56,12.72,9.07C118,120.17,125.55,120.17,130.64,119.22ZM329.1,97.91c16.54-2.07,33.32-8.27,39.68-14.71,2.3-2.31,4-5.57,4-7.79.08-12.65-23.37-18-32.6-18-14.39,0-20.35.63-31.48,3.1a165.75,165.75,0,0,0-36.42,13.12c-7,3.5-14.31,8.11-14.55,9.3-.32,1.43,16.7,8.91,26.87,11.69a124,124,0,0,0,34.51,4.29C321.07,98.78,325.6,98.39,329.1,97.91ZM238.3,86.06c7.71-2.86,12.56-10,11.92-17.65-.47-5.72-3.26-9.62-8.66-12.09-3.42-1.59-4-1.67-8.11-1.51-5.41.24-9.15,1.75-12.88,5.25-7.64,7.16-7.16,19.24.87,24.41A18.74,18.74,0,0,0,238.3,86.06Z"/></g></g></svg>