<svg xmlns="http://www.w3.org/2000/svg" viewBox="0 0 336.82 459"><defs><style>.cls-1{fill:#df1f2b;}.cls-2{fill:#aaaaab;}</style></defs><g id="katman_2" data-name="katman 2"><g id="katman_1-2" data-name="katman 1"><path class="cls-1" d="M153.62,228.14c.7-3,2.82-6.73,4.3-7.51.31-.16.47-.16.78.23a2.82,2.82,0,0,1,.47,1.33c.4,2.43-1.33,5.87-4.77,9.78a8.25,8.25,0,0,1-1.25,1.26C152.91,233.23,153.15,229.94,153.62,228.14ZM25.51,254.2c.31.94.71,1.88.78,2s.08.32.16.39A3.32,3.32,0,0,0,27,257.8c.16.23.47.31,1.09.62.08.08.24.08.4.16.86.39,1.72.78,2,.94a3.35,3.35,0,0,1,.78.39l1.41.7c.16.08.24.16.32.16a3.62,3.62,0,0,0,.47-.16c.23-.07,1.25-.46,2.11-.78a21.14,21.14,0,0,0,2-.78c.16-.08.32-.08.39-.16a3.35,3.35,0,0,0,1.18-.54c.23-.16.31-.47.62-1.1.08-.08.08-.23.16-.39.39-.86.78-1.72.94-2a6,6,0,0,1,.31-.7c.16-.39.39-.86.71-1.49,0-.08.08-.08.08-.16.15-.23.15-.23-.55-2.11a5.39,5.39,0,0,0-.32-.78c-.39-.94-.7-1.88-.78-2s-.08-.31-.15-.39a3.43,3.43,0,0,0-.55-1.17c-.16-.24-.47-.31-1.1-.63-.08-.08-.23-.08-.39-.15-.86-.39-1.72-.79-2-.94a6.76,6.76,0,0,1-.7-.32c-.39-.15-.86-.39-1.49-.7-.07,0-.07-.08-.15-.08a.29.29,0,0,0-.24-.08,9.09,9.09,0,0,0-1.88.63,6.57,6.57,0,0,0-.78.31c-.94.32-1.88.71-2,.79s-.32.07-.39.15a3.32,3.32,0,0,0-1.18.55c-.23.16-.31.47-.62,1.1-.08.07-.08.23-.16.39-.39.86-.78,1.72-.94,1.95a6.22,6.22,0,0,1-.31.71c-.16.39-.39.86-.71,1.48,0,.08-.08.08-.08.16-.15.24-.15.24.55,2.11A1.39,1.39,0,0,1,25.51,254.2Zm150.8-32.48c.08-.08.47-.94.86-1.8,1.57-3.6,2.35-7.28,2.12-9.47-.16-1.33-.86-2.89-1.41-3-.86-.16-2.27,2.11-2.82,4.69a22,22,0,0,0,.16,7.13C175.53,220.86,176.08,222,176.31,221.72Zm29.27.94a4.09,4.09,0,0,0,.55-1.17,46.76,46.76,0,0,0,1.56-6.19c.16-1.25,0-3-.31-3s-1.25,2.58-1.64,3.76a16.84,16.84,0,0,0-.47,5.16A3.54,3.54,0,0,0,205.58,222.66Zm19-42.65c.39,1.17.86,2.27.94,2.58a1.28,1.28,0,0,1,.15.47c.32.79.39,1.18.63,1.41a6.61,6.61,0,0,0,1.33.78l.47.24c1.09.47,2.19,1,2.42,1.09a11,11,0,0,0,1,.47c1,.47,1.41.63,1.8.86a1.32,1.32,0,0,0,.39.16,3,3,0,0,0,.55-.16c.31-.07,1.49-.54,2.66-1s2.27-.86,2.58-.94a1.14,1.14,0,0,1,.47-.16,3.34,3.34,0,0,0,1.41-.62,7.29,7.29,0,0,0,.78-1.33l.24-.47c.47-1.1,1-2.2,1.09-2.43a7.68,7.68,0,0,0,.4-.86c.23-.47.47-1.1.86-1.88,0-.08.07-.08.07-.16.16-.31.16-.31-.7-2.58-.08-.31-.23-.55-.31-.94-.47-1.17-.86-2.27-.94-2.58a1.1,1.1,0,0,1-.16-.47,5.16,5.16,0,0,0-.62-1.41,7.94,7.94,0,0,0-1.33-.78l-.47-.24c-1.1-.46-2.2-1-2.43-1.09a6.73,6.73,0,0,0-.86-.39c-.47-.24-1.1-.47-1.88-.86-.08,0-.08-.08-.16-.08a.26.26,0,0,0-.23-.08,18.32,18.32,0,0,0-2.35.78c-.31.08-.55.24-.94.32-1.17.39-2.27.86-2.58.94a1.23,1.23,0,0,1-.47.15,4.79,4.79,0,0,0-1.41.63,7.14,7.14,0,0,0-.78,1.33l-.23.47c-.47,1.09-1,2.19-1.1,2.42a4.33,4.33,0,0,0-.39.86c-.24.47-.47,1.1-.86,1.88,0,.08-.08.08-.08.16-.16.31-.16.31.7,2.58C224.36,179.38,224.52,179.62,224.6,180ZM239.31,280.1c-6.57,6.57-10.33,13.07-11.5,19.57s.86,11.34,5.47,12.83a16.83,16.83,0,0,0,6.73-.31c6.34-2,11-7,14.25-14.72,2-5.08,3.6-14.55,3.6-22.22a79.64,79.64,0,0,0-.55-9.31c-.08-.32,0-.39-5.71,3.83A89.59,89.59,0,0,0,239.31,280.1ZM212.62,408.36c-.47-1.25-.86-2.42-1-2.66a1.39,1.39,0,0,1-.16-.55,4.32,4.32,0,0,0-.7-1.48,4.13,4.13,0,0,0-1.41-.78l-.47-.24c-1.1-.55-2.27-1-2.51-1.17a6.11,6.11,0,0,0-.94-.39c-.47-.24-1.09-.55-1.87-.87a.29.29,0,0,1-.16-.07.29.29,0,0,0-.24-.08,15.35,15.35,0,0,0-2.42.78,5.35,5.35,0,0,0-.94.39c-1.17.47-2.35.86-2.66,1a1.62,1.62,0,0,1-.47.16,4.49,4.49,0,0,0-1.49.7,4.31,4.31,0,0,0-.78,1.41l-.24.47c-.54,1.09-1,2.27-1.17,2.5a8.71,8.71,0,0,0-.39.94c-.24.47-.47,1.1-.86,1.88,0,.08-.08.08-.08.16-.16.31-.16.31.7,2.66a5,5,0,0,0,.4.94c.47,1.17.86,2.34,1,2.66a1.39,1.39,0,0,1,.16.54,4.29,4.29,0,0,0,.7,1.49,4.13,4.13,0,0,0,1.41.78l.47.24c1.1.55,2.27,1,2.51,1.17s.78.32,1,.47c1,.47,1.41.63,1.88.86a1.43,1.43,0,0,0,.39.16,2.05,2.05,0,0,0,.63-.24c.31-.15,1.56-.54,2.74-1s2.42-.86,2.66-1a1.62,1.62,0,0,1,.47-.16,4.49,4.49,0,0,0,1.49-.7,4.31,4.31,0,0,0,.78-1.41l.23-.47c.55-1.09,1-2.27,1.18-2.5s.31-.71.39-.94c.23-.47.55-1.1.86-1.88,0-.08.08-.08.08-.16.15-.31.15-.31-.71-2.66A5.5,5.5,0,0,1,212.62,408.36Zm-56.5-48.59c-.15-.16-2,2.19-3.68,4.53a30.11,30.11,0,0,0-3.28,6.58c-1.18,3.68-.47,7,2,8.84a2.07,2.07,0,0,0,2.74.24,11.7,11.7,0,0,0,4.15-5.79c1-3.13.63-8.22-1-12.45A14,14,0,0,0,156.12,359.77Zm-47.89-36.63c-.78-.78-.78-.78-1.33-.15a5,5,0,0,0-1,2c-.94,3.05.08,8.22,2.35,11.74.7,1.09.94,1.25,1.17.7a36.49,36.49,0,0,0,.63-7.9C109.79,326,109.4,324.39,108.23,323.14Zm182.49,45.94a35.12,35.12,0,0,0-5.32,4.3c-1.48,1.65-2.58,3.68-2.58,4.93,0,2.43,1.8,3.21,4.3,2,2-1,3.29-3,4-5.79a14.53,14.53,0,0,0,.24-5.17C291.19,368.69,291.19,368.69,290.72,369.08Zm46.1-78.49A168.41,168.41,0,1,1,168.41,122.18,168.42,168.42,0,0,1,336.82,290.59ZM202.22,177a1,1,0,0,0,.54,1c.32.16.32.16,3.21.24a7,7,0,0,1,2.35.16,3.81,3.81,0,0,1-.47.7,15.73,15.73,0,0,0-1,1.33,1.29,1.29,0,0,0,.55,1.57,2.19,2.19,0,0,0,.55.15,2.43,2.43,0,0,0,.55-.15,13,13,0,0,0,1.8-2c1.4-1.72,1.4-1.72,2.58-1.72h.94l-.08.08c-.71.93-2.82,4.14-3,4.3a1.49,1.49,0,0,0,0,1.17,1.3,1.3,0,0,0,1,.55,1.46,1.46,0,0,0,.63-.16,20.2,20.2,0,0,0,2.27-3.13c2-2.89,2-2.89,2.42-2.89h2.27c-.15.23-.47.7-.86,1.33a16.88,16.88,0,0,0-1.09,1.8,1.09,1.09,0,0,0,.31,1.41,1.42,1.42,0,0,0,.78.31,1.25,1.25,0,0,0,.86-.39,22.31,22.31,0,0,0,1.33-2,14.86,14.86,0,0,1,1-1.48v.07c.16.4,1.17,3.21,1.49,4.07a4.76,4.76,0,0,0,.31.86v.08a13.14,13.14,0,0,1-1.8-.23c-1.25-.16-1.8-.24-2.11-.24a1.5,1.5,0,0,0-.63.16,1.25,1.25,0,0,0-.62,1.1,1.09,1.09,0,0,0,.7,1c.16.08,1.49.24,2,.32s1.17.15,1.48.15l-1.88,1.88-.07-.08c-.24-.15-.4-.15-5.48-1-.55-.08-.94-.16-1.18-.16a.92.92,0,0,0-.78.31,1,1,0,0,0-.39,1,1.56,1.56,0,0,0,.63.94,46.05,46.05,0,0,0,4.85.86c.15,0,.39.08.47.08a10.38,10.38,0,0,1-1.49,1.48h0c-.16-.07-2.43-.23-2.5-.23-1.1-.08-1.73-.16-2.12-.16a1.25,1.25,0,0,0-.86.24,1.3,1.3,0,0,0-.31,1.48,1.81,1.81,0,0,0,.7.63,19.68,19.68,0,0,0,2.82.24c-.39.46-1.41,1.4-1.8,1.79-2.11,2.12-2.19,2.27-2.19,2.35a.94.94,0,0,0,.08,1,1.24,1.24,0,0,0,1.09.63c.16,0,.32-.08.47-.08a18.55,18.55,0,0,0,2.19-2.12l1.73-1.72c0,.24.07.63.07,1.1.16,1.56.24,1.88.63,2.11a1.26,1.26,0,0,0,.7.24,1.39,1.39,0,0,0,.79-.32c.47-.47.47-.54.23-3.13a11.42,11.42,0,0,1-.08-2.11,1.75,1.75,0,0,1,.71-.94l.62-.62a.28.28,0,0,0,.08.23c.08.31.32,1.56.55,2.82.47,2.5.47,2.66,1,3a1.39,1.39,0,0,0,.55.16,1.13,1.13,0,0,0,1-.55c.24-.31.24-.94-.15-2.74-.32-1.49-.86-4.54-.94-4.85a11.93,11.93,0,0,1,1-1.1,4.1,4.1,0,0,1,.79-.7c.15,0,.23.7.39,1.49a7.77,7.77,0,0,0,.62,2.27,1.24,1.24,0,0,0,.94.46,1.19,1.19,0,0,0,1.18-1.09,15.67,15.67,0,0,0-.39-2.35c-.16-.86-.32-1.56-.4-1.88l.63.32a3,3,0,0,0,.71.31h0s.31.16.7.31,1.25.55,2,.86c.47.24.86.39,1,.47-.23.24-.78.63-1.41,1.18s-1.64,1.33-1.72,1.48a1.37,1.37,0,0,0,0,1.33,1.33,1.33,0,0,0,1,.55c.16,0,.39-.08.55-.08a12.27,12.27,0,0,0,1.25-.94,3.29,3.29,0,0,0,.55-.47c.39-.31.78-.62.86-.7v2.66a.58.58,0,0,0-.39.16c-.32.15-4.85,3.44-5.17,3.68a1.21,1.21,0,0,0-.47.93,1.29,1.29,0,0,0,.39.87,1.21,1.21,0,0,0,.87.31,1.78,1.78,0,0,0,.62-.16c.16-.08,3.29-2.35,4.15-3v2c0,.08,0,.08-.16.16s-3.21,2.58-3.52,2.89a1.18,1.18,0,0,0-.31,1.1,1.23,1.23,0,0,0,1.17.94,1,1,0,0,0,.47-.08c.16-.08.94-.7,1.41-1.09a1.72,1.72,0,0,1,.78-.55,7,7,0,0,1,.16,2.42c0,3,0,3,.16,3.29a1.39,1.39,0,0,0,.7.63h.31a1.46,1.46,0,0,0,.63-.16.92.92,0,0,0,.39-.39c.23-.31.23-.31.23-3.21a7,7,0,0,1,.16-2.35,3.75,3.75,0,0,1,.71.47,14.24,14.24,0,0,0,1.33,1,1,1,0,0,0,.47.08,1.25,1.25,0,0,0,1.09-.63.92.92,0,0,0,0-1.09,11.88,11.88,0,0,0-2-1.8c-1.72-1.41-1.72-1.41-1.72-2.59v-.94l.08.08c.94.71,4.15,2.82,4.31,3a1.46,1.46,0,0,0,.62.08,1.11,1.11,0,0,0,1.18-1.18c0-.62-.08-.7-3.29-3-2.9-2-2.9-2-2.9-2.43a10.76,10.76,0,0,1,0-2.27,14.68,14.68,0,0,1,1.33.86,20.31,20.31,0,0,0,1.8,1.1,1.44,1.44,0,0,0,.55.16,1.09,1.09,0,0,0,.86-.47,1.22,1.22,0,0,0-.08-1.65c-.15-.15-1.09-.78-1.95-1.33a12.74,12.74,0,0,1-1.49-1h.08l4.07-1.48a5.3,5.3,0,0,0,.86-.32h.08a12,12,0,0,1-.24,1.8c-.23,2.12-.23,2.35-.08,2.67a1.18,1.18,0,0,0,2.12-.08,19.54,19.54,0,0,0,.31-2c.08-.62.16-1.17.16-1.48l1.87,1.87-.07.08c-.16.24-.16.39-1,5.48-.24,1.25-.24,1.56.16,2a1.21,1.21,0,0,0,1.95-.24,43.93,43.93,0,0,0,.86-4.85c0-.16.08-.31.08-.47a3.91,3.91,0,0,1,.71.63,4.88,4.88,0,0,1,.78.86h0c-.08.15-.24,2.42-.24,2.5-.23,2.51-.23,2.51.16,2.9a1.31,1.31,0,0,0,.94.39,1.44,1.44,0,0,0,.55-.16,1.86,1.86,0,0,0,.62-.7,19.68,19.68,0,0,0,.24-2.82c.47.39,1.41,1.41,1.8,1.8,2.11,2.11,2.27,2.19,2.34,2.19a1,1,0,0,0,.47.08,1.39,1.39,0,0,0,.55-.16,1.27,1.27,0,0,0,.55-1.56,18.51,18.51,0,0,0-2.11-2.19l-1.72-1.73c.23,0,.62-.07,1.09-.07,1.57-.16,1.88-.24,2.11-.63a1.23,1.23,0,0,0-1.09-1.88c-.39,0-1,.08-2.19.16a14.44,14.44,0,0,1-1.65.08c-.7,0-.86-.16-1.4-.71l-.63-.62a.26.26,0,0,0,.23-.08c.32-.08,1.49-.31,2.82-.55,2.51-.47,2.66-.47,3-1a1.14,1.14,0,0,0-.39-1.56,1.16,1.16,0,0,0-.62-.16,11.47,11.47,0,0,0-2.12.31c-1.48.32-4.53.87-4.85.94a10.73,10.73,0,0,1-1.09-1,4.49,4.49,0,0,1-.71-.79c0-.15.71-.23,1.49-.39a7.77,7.77,0,0,0,2.27-.62,1.44,1.44,0,0,0,.47-1.33,1.09,1.09,0,0,0-1-.79h-.08a13,13,0,0,0-2.34.39c-.87.16-1.57.32-1.88.4l.31-.63a3.24,3.24,0,0,0,.31-.7,3.32,3.32,0,0,0,.32-.71c.15-.39.54-1.25.86-2,.23-.46.39-.86.47-1,.23.23.62.78,1.17,1.41s1.33,1.64,1.49,1.72a1.21,1.21,0,0,0,.62.15,1,1,0,0,0,.63-.15,1.34,1.34,0,0,0,.39-1.57A14.06,14.06,0,0,0,250,180a3.29,3.29,0,0,0-.47-.55c-.31-.39-.62-.78-.7-.86h2.66a.58.58,0,0,0,.16.39c.15.32,3.44,4.86,3.67,5.17a1.16,1.16,0,0,0,.94.39,1.37,1.37,0,0,0,1-.55,1.22,1.22,0,0,0,0-1.25c-.08-.16-2.35-3.29-3-4.15h2c.08,0,.08,0,.16.16.23.31,2.58,3.21,2.89,3.52a1.15,1.15,0,0,0,.78.31h.32a1.26,1.26,0,0,0,.78-.62,1.14,1.14,0,0,0,0-1,16.72,16.72,0,0,0-1.1-1.41c-.23-.31-.54-.62-.54-.78a7,7,0,0,1,2.42-.16c3,0,3,0,3.29-.15a1.24,1.24,0,0,0,.63-1,1.07,1.07,0,0,0-.55-1c-.31-.16-.31-.16-3.21-.23a7,7,0,0,1-2.35-.16,3.49,3.49,0,0,1,.47-.7,15.46,15.46,0,0,0,1-1.34,1.28,1.28,0,0,0-.55-1.56,1.89,1.89,0,0,0-.55-.16,1.94,1.94,0,0,0-.54.16,11.88,11.88,0,0,0-1.8,2c-1.41,1.72-1.41,1.72-2.59,1.72h-.94l.08-.08c.71-.94,2.82-4.15,3-4.3a1.74,1.74,0,0,0,.07-.63,1.11,1.11,0,0,0-1.17-1.17h-.08c-.62,0-.7.15-2.89,3.28-2,2.9-2,2.9-2.43,2.9h-2.27a14.68,14.68,0,0,1,.86-1.33,20.31,20.31,0,0,0,1.1-1.8,1.11,1.11,0,0,0-.32-1.41,1.32,1.32,0,0,0-.78-.31,1.25,1.25,0,0,0-.86.39,22.3,22.3,0,0,0-1.33,2,12.74,12.74,0,0,1-1,1.49V175c-.15-.39-1.17-3.21-1.48-4.07-.16-.31-.24-.7-.32-.86V170a12,12,0,0,1,1.8.24c1.26.16,1.8.23,2.12.23a1.42,1.42,0,0,0,.62-.15,1.27,1.27,0,0,0,.63-1.1,1.11,1.11,0,0,0-.71-1c-.15-.07-1.4-.23-2-.31s-1.17-.16-1.49-.16l1.88-1.87.08.07c.23.16.39.16,5.48,1,.54.08.94.16,1.17.16a.91.91,0,0,0,.78-.31,1,1,0,0,0,.39-1,1.52,1.52,0,0,0-.62-.94,43.93,43.93,0,0,0-4.85-.86c-.16,0-.39-.08-.47-.08a3.84,3.84,0,0,1,.62-.7,5.11,5.11,0,0,1,.86-.79h0c.16.08,2.43.24,2.51.24,1.09.08,1.72.15,2.11.15a1.23,1.23,0,0,0,.86-.23,1.33,1.33,0,0,0,.32-1.49,1.74,1.74,0,0,0-.71-.62,19.54,19.54,0,0,0-2.82-.24c.39-.47,1.41-1.41,1.8-1.8,2.12-2.11,2.19-2.27,2.19-2.35a.94.94,0,0,0-.07-1,1.27,1.27,0,0,0-1.1-.63,1,1,0,0,0-.47.08,19.32,19.32,0,0,0-2.19,2.11l-1.72,1.72c0-.23-.08-.62-.08-1.09-.16-1.57-.23-1.88-.63-2.11a1.23,1.23,0,0,0-.7-.24,1.42,1.42,0,0,0-.78.31c-.47.47-.47.55-.24,3.13a10.65,10.65,0,0,1,.08,2.12,1.75,1.75,0,0,1-.7.94l-.63.62a.27.27,0,0,0-.08-.23c-.08-.32-.31-1.49-.55-2.82-.47-2.5-.47-2.66-1-3a1.44,1.44,0,0,0-.55-.16,1.16,1.16,0,0,0-1,.55c-.23.31-.23.94.16,2.74.31,1.48.86,4.53.94,4.85a12.44,12.44,0,0,1-1,1.09,4.1,4.1,0,0,1-.78.71,5.26,5.26,0,0,1-.39-1.49,7.17,7.17,0,0,0-.63-2.27,1.23,1.23,0,0,0-.94-.47,1.18,1.18,0,0,0-1.17,1.1,15.88,15.88,0,0,0,.39,2.35c.16.86.31,1.56.39,1.87l-.63-.31a3,3,0,0,0-.7-.31h0s-.31-.16-.7-.32-1.26-.54-2-.86c-.47-.23-.86-.39-1-.47.24-.23.78-.62,1.41-1.17s1.64-1.33,1.72-1.49a1.21,1.21,0,0,0-1-1.87,1.44,1.44,0,0,0-.54.07,12.51,12.51,0,0,0-1.26.94,3.79,3.79,0,0,0-.54.47c-.39.32-.79.63-.86.71v-2.66a.61.61,0,0,0,.39-.16c.31-.16,4.85-3.44,5.16-3.68a1.12,1.12,0,0,0,.39-.94,1.2,1.2,0,0,0-1.17-1.17,2.07,2.07,0,0,0-.63.15c-.15.08-3.28,2.35-4.14,3v-2c0-.07,0-.07.15-.15.32-.24,3.21-2.59,3.45-2.9a1.15,1.15,0,0,0,.31-1.09,1.25,1.25,0,0,0-1.18-.94.94.94,0,0,0-.46.08,16.09,16.09,0,0,0-1.41,1.09,1.82,1.82,0,0,1-.79.55,7.5,7.5,0,0,1-.15-2.43c0-3,0-3-.16-3.28a1.19,1.19,0,0,0-1-.63,1,1,0,0,0-1,.55c-.16.31-.16.31-.24,3.21a7.37,7.37,0,0,1-.15,2.34,3,3,0,0,1-.71-.47,15.07,15.07,0,0,0-1.33-1,1,1,0,0,0-.47-.08,1.23,1.23,0,0,0-1.09.62.93.93,0,0,0,0,1.1,11,11,0,0,0,2,1.8c1.72,1.41,1.72,1.41,1.72,2.58v.94l-.07-.08c-.94-.7-4.15-2.81-4.31-3a1.14,1.14,0,0,0-.55-.08,1.16,1.16,0,0,0-1.17.94,1.32,1.32,0,0,0,.16.94,20.2,20.2,0,0,0,3.13,2.27c2.89,2,2.89,2,2.89,2.43a10.66,10.66,0,0,1,0,2.26,15.3,15.3,0,0,1-1.33-.86,16.88,16.88,0,0,0-1.8-1.09,1.44,1.44,0,0,0-.55-.16,1.1,1.1,0,0,0-.86.47,1.21,1.21,0,0,0,.08,1.64,22.31,22.31,0,0,0,2,1.33,14.86,14.86,0,0,1,1.48,1h-.07c-.4.16-3.21,1.18-4.07,1.49a4.76,4.76,0,0,0-.86.31h-.08a13.14,13.14,0,0,1,.23-1.8c.24-2.11.24-2.35.08-2.66a1.17,1.17,0,0,0-2.11.08,19.13,19.13,0,0,0-.32,2c-.07.63-.15,1.18-.15,1.49l-1.88-1.88.08-.08c.15-.23.15-.39,1-5.47.23-1.26.23-1.57-.16-2a1.29,1.29,0,0,0-.86-.39,1.25,1.25,0,0,0-1.1.63,46.05,46.05,0,0,0-.86,4.85c0,.15-.08.39-.08.47a10.38,10.38,0,0,1-1.48-1.49h0c.08-.16.23-2.43.23-2.5.24-2.51.24-2.51-.16-2.9a1.29,1.29,0,0,0-.93-.39,1.39,1.39,0,0,0-.55.16,1.68,1.68,0,0,0-.63.7,19.85,19.85,0,0,0-.23,2.82c-.47-.39-1.41-1.41-1.8-1.8-2.12-2.12-2.27-2.19-2.35-2.19a1,1,0,0,0-.47-.08,1.62,1.62,0,0,0-.55.15,1.29,1.29,0,0,0-.55,1.57,19.36,19.36,0,0,0,2.12,2.19l1.72,1.72c-.24,0-.63.08-1.1.08-1.56.16-1.87.24-2.11.63a1.09,1.09,0,0,0,.16,1.48,1,1,0,0,0,.94.39c.39,0,1-.07,2.19-.15a14.29,14.29,0,0,1,1.64-.08c.71,0,.86.16,1.41.7l.63.63a.29.29,0,0,0-.24.08c-.31.08-1.56.31-2.82.55-2.5.47-2.66.47-3,1a1.16,1.16,0,0,0,.39,1.57,1.2,1.2,0,0,0,.63.16,10.85,10.85,0,0,0,2.11-.32c1.49-.31,4.54-.86,4.85-.94a12.31,12.31,0,0,1,1.1,1,4.42,4.42,0,0,1,.7.78c0,.16-.7.24-1.49.39a7.38,7.38,0,0,0-2.26.63,1.41,1.41,0,0,0-.47,1.33,1.06,1.06,0,0,0,1,.78h.08a12.19,12.19,0,0,0,2.35-.39c.86-.15,1.56-.31,1.88-.39l-.32.63a3,3,0,0,0-.31.7h0a7.35,7.35,0,0,0-.31.71c-.16.39-.55,1.25-.86,1.95-.24.47-.39.86-.47,1-.24-.24-.63-.78-1.18-1.41s-1.33-1.64-1.48-1.72a1.18,1.18,0,0,0-.63-.16.9.9,0,0,0-.62.16,1.34,1.34,0,0,0-.4,1.56,12.51,12.51,0,0,0,.94,1.26,3.79,3.79,0,0,0,.47.54c.32.4.63.79.71.86h-2.66a.61.61,0,0,0-.16-.39c-.16-.31-3.44-4.85-3.68-5.16a1.15,1.15,0,0,0-.94-.39,1.3,1.3,0,0,0-1,.55,1.18,1.18,0,0,0,0,1.25c.07.15,2.34,3.28,3,4.14h-2c-.07,0-.07,0-.15-.15-.24-.31-2.58-3.21-2.9-3.45a1.13,1.13,0,0,0-.78-.31h-.31a1.09,1.09,0,0,0-.79.63,1.21,1.21,0,0,0,0,1c.08.15.71.93,1.1,1.4.23.32.55.63.55.79a7.5,7.5,0,0,1-2.43.15c-3,0-3,0-3.29.16A1.28,1.28,0,0,0,202.22,177Zm-108.94-17a.72.72,0,0,0,.16.54h0c.23.24.23.24,2.35.24H98c-.16.15-.39.55-.79,1,0,0-.86,1.17-.93,1.33a.85.85,0,0,0,.07.62.8.8,0,0,0,.55.31.49.49,0,0,0,.31-.07c.16-.08.32-.24,2-2.51.47-.7.47-.7.86-.7h1.8a6.45,6.45,0,0,1-1.17,1.64c-.71.86-1.41,1.88-1.49,1.88a.58.58,0,0,0,.08.78.67.67,0,0,0,.47.24.72.72,0,0,0,.55-.24c.08-.08.94-1.17,1.8-2.27s1.56-2,1.64-2.11h1a1.5,1.5,0,0,1,.7.08,3.63,3.63,0,0,1-.31.62c-.47.79-.55.86-.55,1.1a.69.69,0,0,0,.08.39c.16.16.31.31.47.31h.08a.56.56,0,0,0,.47-.23c.07-.08.47-.71.78-1.17s.63-1,.7-1.1h2.35c.94,0,1.72,0,1.8.16s-.47.7-1.17,1.33a21.09,21.09,0,0,1-1.72,1.64h-.24c-.94-.16-2.43-.47-2.5-.47a.59.59,0,0,0-.55.39.86.86,0,0,0,0,.63c.16.31.31.31,1.33.55a5.33,5.33,0,0,0,.78.15l-.55.55c-.39.39-.54.55-1.09.55a16.08,16.08,0,0,1-2.11-.24c-1.26-.15-2.59-.31-2.82-.31h0a.67.67,0,0,0-.63.55.56.56,0,0,0,.39.7,10,10,0,0,0,2.35.39,15.41,15.41,0,0,0,2,.24l-.71.7c-.62.63-.86.86-.94.86h0c-.23-.08-3.36-.39-3.52-.39a.45.45,0,0,0-.31.08.79.79,0,0,0-.39.63c0,.31.15.47.47.62a9.44,9.44,0,0,0,1.48.24c.47.08.94.08,1.1.15l-1.33,1.33-1.57,1.57a.8.8,0,0,0-.08.7.7.7,0,0,0,.63.39h.16a13.89,13.89,0,0,0,1.72-1.56,14.62,14.62,0,0,1,1.41-1.33,10.71,10.71,0,0,0,.15,1.09,8.27,8.27,0,0,0,.32,1.73c.08.23.31.31.62.31h0a.64.64,0,0,0,.63-.71c0-.15-.47-3.2-.55-3.67,0-.08.39-.39.86-.94.32-.32.55-.55.63-.55s.23.78.39,1.88c0,0,.31,2.35.31,2.42a1.75,1.75,0,0,0,.32.4.49.49,0,0,0,.31.07.6.6,0,0,0,.62-.54c0-.08,0-.32-.31-3s-.31-2.74.31-3.44a1.89,1.89,0,0,1,.63-.55,4,4,0,0,0,.16.71,5,5,0,0,0,.31,1.09.61.61,0,0,0,.63.39.68.68,0,0,0,.7-.62c0-.16-.39-2-.55-2.66.08-.08.55-.63,1.65-1.73a20.31,20.31,0,0,1,1.56-1.48V164a7,7,0,0,1-.16,2.19c-.15.39-.39.55-.93.94-1,.62-1.18.78-1.26.94a.6.6,0,0,0,0,.7.59.59,0,0,0,.55.31h.08c.16,0,.31-.15,1-.54a4.65,4.65,0,0,1,.7-.47v1.17c0,.63,0,.63-2.11,2.19a25.56,25.56,0,0,0-2.19,1.8.48.48,0,0,0-.08.32.7.7,0,0,0,.08.39.36.36,0,0,1,.15.23.58.58,0,0,0,.39.08.29.29,0,0,0,.24-.08c.08-.08,1.33-.94,1.8-1.33.78-.63,1.49-1.17,1.72-1.33v1c0,.62,0,.94-.16,1.17a4.37,4.37,0,0,1-1.09,1l-.24.16c-1.64,1.25-1.64,1.25-1.64,1.56h0a.65.65,0,0,0,.16.47.56.56,0,0,0,.47.16h0c.23,0,.23,0,1.41-.94l.07-.08a4.31,4.31,0,0,1,.86-.63v2c0,2.19,0,2.19.08,2.35a.86.86,0,0,0,.39.31h.16a.66.66,0,0,0,.63-.47c.08-.08.08-.39.08-2.27v-2a12.07,12.07,0,0,1,1,.78s1.18.86,1.33.94h.24a.67.67,0,0,0,.55-.32.6.6,0,0,0,0-.7c-.08-.16-.24-.31-2.51-2a7.35,7.35,0,0,1-.62-.47c-.08-.07-.08-.23-.08-.54V171.4h0a6.34,6.34,0,0,1,1.64,1.18c.86.7,1.88,1.4,1.88,1.48a.57.57,0,0,0,.39.08,1.1,1.1,0,0,0,.47-.16.64.64,0,0,0,.23-.46.68.68,0,0,0-.23-.55c-.08-.08-1.17-.94-2.27-1.8s-2-1.57-2.11-1.65v-.93a1.53,1.53,0,0,1,.08-.71h0a5.42,5.42,0,0,1,.62.31c.78.47.86.55,1.1.55h.07a.48.48,0,0,0,.32-.08c.15-.15.31-.31.31-.47a.71.71,0,0,0-.23-.54c-.08-.08-.71-.47-1.18-.79s-1-.62-1.09-.7v-2.35c0-1,0-1.8.15-1.8s.63.47,1.33,1.18a18.81,18.81,0,0,1,1.65,1.72v.23c-.16.94-.47,2.43-.47,2.51a.57.57,0,0,0,.39.54.45.45,0,0,0,.31.08c.08,0,.24,0,.31-.08.32-.15.32-.31.55-1.33a6.24,6.24,0,0,0,.16-.78l.55.55c.62.62.62.62.31,3.21-.16,1-.31,2.66-.31,2.81a.68.68,0,0,0,.7.63.81.81,0,0,0,.63-.39,10.83,10.83,0,0,0,.39-2.35,14.93,14.93,0,0,0,.23-2l.71.7c.78.86.86.86.86.94-.08.24-.39,3.37-.39,3.52s0,.24.08.31a.67.67,0,0,0,1.25-.07,10,10,0,0,0,.23-1.49c.08-.47.08-.86.16-1.1l1.33,1.33,1.56,1.57c.16.08.24.16.4.16a.47.47,0,0,0,.31-.08.69.69,0,0,0,.39-.78,13.26,13.26,0,0,0-1.57-1.73,18.13,18.13,0,0,1-1.33-1.4,8.72,8.72,0,0,0,1.1-.16,9.65,9.65,0,0,0,1.72-.31c.24-.08.31-.32.31-.63a.64.64,0,0,0-.7-.63c-.16,0-3.21.47-3.68.55-.08,0-.39-.39-.94-.86-.31-.31-.54-.55-.54-.7s.78-.24,1.87-.4c0,0,2.35-.31,2.43-.31a1.66,1.66,0,0,0,.39-.31.47.47,0,0,0,.08-.31.61.61,0,0,0-.55-.63H126c-.23,0-1.09.08-2.89.31a19.42,19.42,0,0,1-2.27.24c-.63,0-.71-.16-1.18-.55a1.72,1.72,0,0,1-.54-.63,3.7,3.7,0,0,0,.7-.15,4.88,4.88,0,0,0,1.1-.32.61.61,0,0,0,.39-.62.7.7,0,0,0-.63-.71c-.15,0-2,.4-2.66.55-.08-.08-.63-.55-1.72-1.64-.63-.71-1.25-1.25-1.49-1.57H117a6.93,6.93,0,0,1,2.19.16c.4.16.55.39.94.94.63,1,.79,1.17.94,1.25a.58.58,0,0,0,.39.08.69.69,0,0,0,.55-.24.63.63,0,0,0,.16-.54c0-.16-.16-.32-.55-1a5.53,5.53,0,0,1-.47-.71h1.18c.62,0,.62,0,2.19,2.12a17.41,17.41,0,0,0,1.8,2.19c.07.08.23.08.31.08h.08a.58.58,0,0,0,.31-.08c.08-.08.16-.16.24-.16a.9.9,0,0,0,.07-.62c-.07-.08-.94-1.33-1.33-1.8-.62-.79-1.17-1.49-1.33-1.73h1c.63,0,.94,0,1.17.16a4.69,4.69,0,0,1,1,1.1l.16.23c1.25,1.57,1.25,1.65,1.56,1.65h.08a.71.71,0,0,0,.71-.71h0c0-.23,0-.23-.94-1.41l-.08-.08a3.8,3.8,0,0,1-.63-.86h2c2.19,0,2.19,0,2.35-.08a.64.64,0,0,0,.31-.46.73.73,0,0,0-.16-.55h0c-.23-.24-.23-.24-2.35-.24h-2.19c.16-.23.4-.55.79-1,0,0,.86-1.18.94-1.34a.85.85,0,0,0-.08-.62.8.8,0,0,0-.55-.31.49.49,0,0,0-.31.07c-.16.08-.32.24-2,2.51-.47.7-.47.7-.86.7h-1.8a6.45,6.45,0,0,1,1.17-1.64c.71-.86,1.41-1.88,1.49-1.88a.58.58,0,0,0-.08-.78.65.65,0,0,0-.47-.24.72.72,0,0,0-.55.24l-1.8,2.27c-.86,1.09-1.56,1.95-1.64,2.11h-1a1.5,1.5,0,0,1-.7-.08,4.68,4.68,0,0,1,.31-.62c.47-.79.55-.86.55-1.1a.69.69,0,0,0-.08-.39c-.15-.16-.31-.31-.47-.31h-.08a.56.56,0,0,0-.47.23c-.07.08-.47.71-.78,1.18s-.62,1-.7,1.09h-2.35c-.94,0-1.72,0-1.8-.16s.47-.7,1.17-1.33a18.8,18.8,0,0,1,1.73-1.64h.23c.94.16,2.43.47,2.5.47a.59.59,0,0,0,.55-.39.86.86,0,0,0,0-.63c-.15-.31-.31-.31-1.33-.54a4.29,4.29,0,0,0-.78-.16l.55-.55c.39-.39.55-.55,1.09-.55a16.36,16.36,0,0,1,2.12.24c1.48.15,2.66.31,2.81.31h0a.53.53,0,0,0,.55-.55.56.56,0,0,0-.39-.7,10,10,0,0,0-2.35-.39,15.5,15.5,0,0,0-2-.24l.7-.7c.63-.63.86-.86.94-.86h0c.24.08,3.37.39,3.52.39a.48.48,0,0,0,.32-.08.71.71,0,0,0,.39-.63c0-.31-.16-.47-.47-.62a9.63,9.63,0,0,0-1.49-.24,7.6,7.6,0,0,1-1.1-.15l1.33-1.33,1.57-1.57a.74.74,0,0,0,.08-.7.69.69,0,0,0-.63-.39h-.15a12.4,12.4,0,0,0-1.73,1.56,16.29,16.29,0,0,1-1.4,1.33,8.88,8.88,0,0,0-.16-1.09,10.34,10.34,0,0,0-.31-1.73c-.08-.23-.32-.31-.63-.31h0a.64.64,0,0,0-.63.71c0,.15.47,3.28.55,3.67a5,5,0,0,1-.86.94c-.31.32-.55.55-.63.55s-.23-.78-.39-1.88c0-.08-.31-2.35-.31-2.42a1.47,1.47,0,0,0-.31-.39.48.48,0,0,0-.32-.08.6.6,0,0,0-.62.54c0,.08,0,.4.31,3,.31,2.74.31,2.74-.31,3.44a1.89,1.89,0,0,1-.63.55,4.49,4.49,0,0,0-.15-.7,4.88,4.88,0,0,0-.32-1.1.61.61,0,0,0-.62-.39.69.69,0,0,0-.71.62c0,.16.39,2,.55,2.67-.08.07-.55.62-1.64,1.72-.71.7-1.26,1.25-1.57,1.48v-2.19a7,7,0,0,1,.16-2.19c.15-.39.39-.55.94-.94,1-.62,1.17-.78,1.25-.94a.57.57,0,0,0,0-.7.58.58,0,0,0-.55-.31h-.08c-.15,0-.31.15-1,.54a5.16,5.16,0,0,1-.71.47V150.9c0-.63,0-.63,2.11-2.19a18.65,18.65,0,0,0,2.2-1.8.52.52,0,0,0,.07-.31.81.81,0,0,0-.07-.4c-.08-.07-.16-.15-.16-.23a.58.58,0,0,0-.39-.08.29.29,0,0,0-.24.08c-.08.08-1.33.94-1.8,1.33-.78.63-1.48,1.17-1.72,1.33v-1c0-.62,0-.94.16-1.17a4.57,4.57,0,0,1,1.09-1l.24-.16c1.64-1.25,1.64-1.25,1.64-1.56h0a.7.7,0,0,0-.15-.47.58.58,0,0,0-.47-.16h0c-.24,0-.24,0-1.41.94l-.08.08a4,4,0,0,1-.86.63v-2c0-2.19,0-2.19-.08-2.35a.6.6,0,0,0-.55-.31,1.14,1.14,0,0,0-.47.16h0c-.23.23-.23.23-.23,2.34v2.2c-.16-.16-.55-.4-1-.79,0,0-1.17-.86-1.33-.94h-.23a.66.66,0,0,0-.55.32.57.57,0,0,0,0,.7c.08.16.23.31,2.5,2,.31.23.55.39.63.47s.08.23.08.54v1.65h0a6.12,6.12,0,0,1-1.65-1.18c-.86-.7-1.88-1.4-1.88-1.48s-.23-.08-.39-.08a1.14,1.14,0,0,0-.47.16.68.68,0,0,0-.23.47.71.71,0,0,0,.23.54c.08.08,1.18.94,2.27,1.8s2,1.57,2.12,1.65v.94a1.5,1.5,0,0,1-.08.7h0a4.56,4.56,0,0,1-.63-.31c-.78-.47-.86-.55-1.09-.55H111a.48.48,0,0,0-.32.08c-.15.15-.31.31-.31.47a.68.68,0,0,0,.24.54c.07.08.7.47,1.17.79s1,.62,1.1.7v2.35c0,1,0,1.8-.16,1.8s-.63-.47-1.33-1.18a16.62,16.62,0,0,1-1.64-1.72V155c.15-.94.47-2.43.47-2.51a.58.58,0,0,0-.4-.54c-.07-.08-.23-.08-.31-.08a.45.45,0,0,0-.31.08c-.32.15-.32.31-.55,1.33a6.24,6.24,0,0,0-.16.78l-.54-.55c-.63-.62-.63-.62-.32-3.21,0-.23.32-2.66.32-2.81a.69.69,0,0,0-.71-.63.8.8,0,0,0-.62.39,10.27,10.27,0,0,0-.4,2.35,16.83,16.83,0,0,0-.23,2l-.7-.7c-.79-.78-.87-.86-.87-.94.08-.23.4-3.36.4-3.52s0-.24-.08-.31a.63.63,0,0,0-.63-.4.59.59,0,0,0-.62.47,9.63,9.63,0,0,0-.24,1.49c-.08.47-.08.86-.16,1.1l-1.33-1.33-1.56-1.57c-.16-.08-.24-.16-.39-.16a.48.48,0,0,0-.32.08.69.69,0,0,0-.39.79,16.54,16.54,0,0,0,1.57,1.72,16.08,16.08,0,0,1,1.33,1.41,8.31,8.31,0,0,0-1.1.15,10.3,10.3,0,0,0-1.72.31c-.23.08-.31.32-.31.63a.64.64,0,0,0,.7.63c.16,0,3.21-.47,3.68-.55.08,0,.39.39.94.86.31.31.55.55.55.7s-.79.24-1.88.4c0,0-2.35.31-2.43.31a1.89,1.89,0,0,0-.39.31.47.47,0,0,0-.08.31.61.61,0,0,0,.55.63h.08c.16,0,1.1-.08,2.9-.31a19.32,19.32,0,0,1,2.26-.24c.63,0,.71.16,1.18.55a1.89,1.89,0,0,1,.55.63,4.81,4.81,0,0,0-.71.15,4.59,4.59,0,0,0-1.09.32.6.6,0,0,0-.39.62.69.69,0,0,0,.62.71c.16,0,2-.39,2.66-.55.08.08.63.55,1.72,1.64a18.73,18.73,0,0,1,1.49,1.57h-2.19a7,7,0,0,1-2.19-.16c-.39-.16-.55-.39-.94-.94-.63-1-.78-1.17-.94-1.25a.57.57,0,0,0-.39-.08.71.71,0,0,0-.55.24.63.63,0,0,0-.16.54c0,.16.16.32.55,1a4.62,4.62,0,0,1,.47.71h-1.17c-.63,0-.63,0-2.19-2.12a19.35,19.35,0,0,0-1.8-2.19.48.48,0,0,0-.32-.08h-.07a.6.6,0,0,0-.32.08c-.08.08-.15.16-.23.16a.85.85,0,0,0-.08.62c.08.08.94,1.33,1.33,1.8.63.79,1.17,1.49,1.33,1.73h-1c-.62,0-.94,0-1.17-.16a4.69,4.69,0,0,1-1-1.1l-.15-.23c-1.26-1.57-1.26-1.64-1.57-1.64h-.08a.7.7,0,0,0-.7.7h0c0,.23,0,.23.94,1.41l.07.08a3.51,3.51,0,0,1,.63.86h-2c-2.19,0-2.19,0-2.34.08A1.16,1.16,0,0,0,93.28,160.06ZM60.49,208.81c1.72,0,2-.24,2.82-2.35a22.33,22.33,0,0,1,1.49-3.05c.86-1.33,2.58-3.13,3-3.13.16,0,.47.63.7,1.49.47,1.4.47,1.72.47,8.29,0,3.76-.07,10.88-.07,16-.08,6.26,0,10.33.15,12.83.16,2,.39,5,.47,6.73.24,3.44,1.25,9.78,1.72,10.72a6.43,6.43,0,0,0,1.26,1.49,3.26,3.26,0,0,0,2,1.09,5,5,0,0,0,3.29-.31,6.93,6.93,0,0,0,2-2.35c.47-.86.94-11.66,1.1-24.41.08-7,.08-7,1.17-10.33,2.9-8.77,6.57-15.73,11.11-21.13a1.3,1.3,0,0,1,.71-.55c.31,0,.31.55-.08,6.81-.94,16.67-.94,35.14.08,37.8.62,1.72,2.5,2.58,5.4,2.58,3.36,0,5-.94,5.63-3.13.55-1.88,1.1-9.55,1.65-21.37.07-1.8.23-2.27,1.48-5.87a106.71,106.71,0,0,1,5.56-13.3c3-6,6.1-10.56,9.15-13.07.71-.55,1.34-1.09,1.41-1.09.24,0,.32.39.55,1.64.31,2.43-.94,11.9-3.44,25.36a127,127,0,0,0-2.51,21.59,51.75,51.75,0,0,0,.94,13c1.33,6.81,3.84,12.37,6.81,15.11a6.46,6.46,0,0,0,5.09,1.95,5.15,5.15,0,0,0,2.81-.54c2-1,3.14-2.82,4.94-8.45,1.56-4.78,5.39-15.58,5.55-15.73s.55.15,1.1.62a12.24,12.24,0,0,0,8.37,2.74c4.93,0,8.61-1.72,13.23-6.18a52.29,52.29,0,0,0,7.59-9.31c1.09-1.65,2.11-3.21,2.34-3.45s.55-.39,2.74-.31c2.35.08,2.35.08,1.26,1.8a27,27,0,0,0-3.84,9.86,40.71,40.71,0,0,0-.86,11c.23,7.28,1.64,12.52,4.46,16.75,1.8,2.74,3.13,3.6,5.56,3.76,3.68.23,5.94-1.65,8.76-7.28,1.8-3.6,2.11-4.38,9.39-25.59,1.65-4.77,3.05-8.77,3.21-8.84a7.91,7.91,0,0,1,2.9-.63,24.56,24.56,0,0,1-.39,2.9c-2.2,11.5-3,20.81-2.27,26.06.78,5.94,3.13,10.48,6.1,11.81a6.57,6.57,0,0,0,3.13.47,5.51,5.51,0,0,0,3-.47c2.66-1.33,4.93-5.4,8.3-15.1.94-2.66,1.72-5.09,1.88-5.4.15-.55.15-.55,1.25.55a9,9,0,0,0,10.33,1.41c1.09-.79,2.58-3.06,3.68-5.56,1-2.27,3.68-8.3,3.83-8.37s.16,0,.16,0c.23.23,4.38,13.69,5.24,17.06.94,3.67,1.72,8.13,1.49,8.68a23.48,23.48,0,0,1-3.21,2.51c-9.08,6.57-12.91,9.54-17.06,13.61-8.69,8.45-13.23,17.22-13.23,25.28,0,6.57,3.13,10.49,9.4,11.58a34.8,34.8,0,0,0,9.31-.47,34.23,34.23,0,0,0,14.48-7.43,40.9,40.9,0,0,0,12.52-19.41,54.08,54.08,0,0,0,1.87-17.37c-.15-1.72-.39-4.23-.62-5.48-.39-2.19-1.33-6.65-1.49-7.2-.08-.16.86-.94,2-1.72,5.08-3.68,7.9-6.18,7.9-7.12,0-.39-.55-.94-1.25-1.1-1.1-.23-2.19.24-3.84,1.8a48.5,48.5,0,0,1-5.63,4.54c-.08-.08-.31-1.1-.71-2.35a55.73,55.73,0,0,0-8.68-19.56c-1.8-2.74-3.45-4.46-4.62-4.93a7.22,7.22,0,0,0-4.46,0c-1,.47-1.64,1.48-2.66,4.54a81.75,81.75,0,0,1-5.63,12c-.55.78-.79,1-.87.78s-.23-1.33-.39-2.58a98,98,0,0,1,.47-16.83,60.82,60.82,0,0,0,.55-6.1c0-1.8,0-1.88-.63-2.35a5.07,5.07,0,0,0-3.83-.86c-2.35.16-3.21.71-4.3,2.9-2,3.83-3.21,10.64-3.29,17.92-.08,4.22-.08,4.22-2.51,11.5-2.73,8.06-3.75,10.72-5.55,13.78-1.49,2.66-2,3.2-2.19,2.81a15.35,15.35,0,0,1-.79-4.69c-.23-3.13.08-7.52.94-13.93,1.73-13.31.94-20-2.5-21.21a11.77,11.77,0,0,0-4.93.08,12.61,12.61,0,0,1-1.33.23,6,6,0,0,1,.7-2,22.53,22.53,0,0,0,2.35-9.39c0-2.12-.23-3.06-1.09-4.07-1.65-1.88-6.34-2-9.24-.39-2.11,1.25-4.46,4.61-5.63,8a8.89,8.89,0,0,0,.78,7.82,9.73,9.73,0,0,0,4.46,2.82,4.62,4.62,0,0,1,1.49.63c0,.07-.94,3-2.12,6.41s-3.28,9.86-4.77,14.32c-2.74,8.38-3.83,11-5.32,13.62-1.1,1.88-2.82,4.23-3.13,4.23s-.78-1.41-1.1-3.29a57.66,57.66,0,0,1,.08-11.58c.31-2.66,1.18-8,2.66-16.59a28.91,28.91,0,0,0,.47-5.87c-.08-2.82-.08-3.13-.55-4a3.13,3.13,0,0,0-1.25-1.25c-.94-.47-3-.47-5.63.07-2,.39-3.37.39-3.68,0a7.58,7.58,0,0,1,.86-2.19,32.49,32.49,0,0,0,2.9-7.9c.78-3.52.23-6.73-1.26-8.22-1.95-1.88-6-1.8-8.76.08a10.16,10.16,0,0,0-3,4.07c-1.25,3.44-.7,9.08,1.34,12a10.07,10.07,0,0,0,2.58,2.66c.47,0,.08.86-1.41,3.05a62.76,62.76,0,0,1-6.73,8.61,22.34,22.34,0,0,1-6.34,5.09c-1.49.78-3.36,1.41-3.76,1.17-.78-.31-1.95-2.74-2.27-4.77-.15-.86-.15-.86,1-1.72,3.6-2.82,8.06-8.85,9.16-12.37a7.76,7.76,0,0,0,.08-4c-.47-1.25-2-2.27-4-2.66-6.26-1.33-14.08,3.6-16.9,10.64a14.51,14.51,0,0,0-1,7.44c.24,2,.24,2-1.09,5.79-.78,2.11-2.19,6.26-3.21,9.31-2.66,7.83-4.7,12.6-5.24,12.37-.32-.08-.71-1.57-1.1-3.68s-.31-9.55.08-14.64c.16-1.48.31-4,.39-5.55s.39-5.32.63-8.22.54-6.65.62-8.29c.32-4.15.94-11.74,1.33-15.42.16-1.64.39-4.85.47-7,.32-8.77-1.17-12.84-5.16-14.48a13,13,0,0,0-6.73-.08c-3.29,1.1-7,4.93-10.49,10.72-.78,1.25-2.27,4.23-3.44,6.57-2.11,4.23-2.11,4.23-2.19,2.82-.47-4.85-1.33-7.28-3.52-9.23a9.92,9.92,0,0,0-10-1.57c-1.88.86-4.93,4.54-7.59,8.92a92.83,92.83,0,0,0-4.78,9.32,6.28,6.28,0,0,1-.47,1s-.23-1.09-.39-2.42c-1.09-7.75-3.36-12.13-7-13.85a6.72,6.72,0,0,0-3.36-.71A8,8,0,0,0,64.17,199a15.42,15.42,0,0,0-5.09,7C57.91,208,58.38,208.81,60.49,208.81Zm69.73,92.58c-.08.23-.47,3.6-.47,3.75a.48.48,0,0,0,.08.32.8.8,0,0,0,.62.39.76.76,0,0,0,.71-.47,14.36,14.36,0,0,0,.23-1.57,10.3,10.3,0,0,1,.16-1.17l1.41,1.41,1.64,1.64c.16.08.24.16.39.16a.48.48,0,0,0,.32-.08.74.74,0,0,0,.39-.86,10.11,10.11,0,0,0-1.65-1.8,18.92,18.92,0,0,1-1.41-1.49c.24,0,.63-.08,1.18-.16,1.64-.23,1.64-.23,1.88-.39a.73.73,0,0,0-.39-1.33c-.16,0-3.45.55-3.92.63a4.5,4.5,0,0,1-.94-.94c-.31-.31-.62-.63-.54-.7s.86-.24,2-.4l2.58-.31a.87.87,0,0,0,.39-.39.45.45,0,0,0,.08-.31.69.69,0,0,0-.55-.71h-.07c-.24,0-1.18.08-3.06.32a22.58,22.58,0,0,1-2.42.23,1.55,1.55,0,0,1-1.25-.55L127,296a4.38,4.38,0,0,1,.78-.16,3.89,3.89,0,0,0,1.1-.31.6.6,0,0,0,.39-.63.7.7,0,0,0-.7-.7c-.16,0-2,.39-2.82.62-.08-.08-.71-.62-1.8-1.72l-1.64-1.64h2.26a7.71,7.71,0,0,1,2.27.15c.4.16.55.4.94,1,.71,1,.86,1.25.94,1.33a.7.7,0,0,0,.39.08.73.73,0,0,0,.55-.23.75.75,0,0,0,.16-.55c0-.16-.16-.39-.63-1a5.84,5.84,0,0,1-.47-.78h1.18c.62,0,.62,0,2.34,2.27.16.23,1.8,2.27,1.88,2.35a.65.65,0,0,0,.39.07h.08c.16,0,.24,0,.31-.07l.24-.24a.72.72,0,0,0,.08-.7c-.08-.08-1-1.41-1.41-1.88-.63-.86-1.25-1.57-1.41-1.8h1.1a2.82,2.82,0,0,1,1.25.15c.31.16.55.47,1.09,1.18l.16.23c1.33,1.65,1.33,1.72,1.64,1.72h.08a.7.7,0,0,0,.71-.7h0c0-.23,0-.23-1-1.49l-.08-.07c-.31-.4-.55-.71-.7-.87h2.11c2.35,0,2.35,0,2.5-.07s.32-.32.32-.47a.65.65,0,0,0-.16-.55h0c-.24-.24-.24-.24-2.5-.24h-2.27c.15-.23.47-.62.78-1.09a10.76,10.76,0,0,0,.94-1.41.59.59,0,0,0-.08-.63.81.81,0,0,0-.55-.31.45.45,0,0,0-.31.08c-.16.08-.31.23-2,2.66-.54.7-.54.7-.94.7H133c-.16,0-.32,0-.39-.07a9.9,9.9,0,0,1,1.25-1.73c.7-.93,1.56-2,1.56-2a.71.71,0,0,0-.07-.86.72.72,0,0,0-.55-.24.71.71,0,0,0-.55.24c-.08.08-1,1.25-1.88,2.42s-1.64,2.12-1.8,2.27h-1c-.39,0-.7,0-.7-.07a2.23,2.23,0,0,1,.39-.71,4.16,4.16,0,0,0,.63-1.17c0-.24,0-.32-.08-.39a.59.59,0,0,0-.55-.32h-.08a.68.68,0,0,0-.54.24,14.05,14.05,0,0,0-.79,1.25,11.31,11.31,0,0,0-.7,1.17h-2.51c-1,0-1.8,0-1.87-.15s.47-.71,1.17-1.41c.94-.94,1.72-1.64,1.8-1.8h.23c.94.23,2.59.55,2.67.55a.8.8,0,0,0,.62-.39.59.59,0,0,0,0-.71c-.15-.31-.31-.31-1.41-.55a5.78,5.78,0,0,0-.86-.15c.16-.16.39-.47.55-.63a1.32,1.32,0,0,1,1.17-.55,19.21,19.21,0,0,1,2.27.24c1.57.23,2.82.31,3,.31h0a.66.66,0,0,0,.62-.55.69.69,0,0,0-.39-.78,11.85,11.85,0,0,0-2.5-.39c-1-.16-1.8-.24-2.12-.31l.79-.79c.62-.62.86-.86.94-.86h0c.23.08,3.6.47,3.75.47a.48.48,0,0,0,.32-.08.82.82,0,0,0,.39-.7.61.61,0,0,0-.47-.63c-.16-.07-1-.15-1.57-.23a10.3,10.3,0,0,1-1.17-.16l1.41-1.41,1.64-1.64a.74.74,0,0,0,.08-.7.79.79,0,0,0-.63-.39h-.23c-.16.07-.39.23-1.8,1.64a18.92,18.92,0,0,1-1.49,1.41c0-.24-.08-.63-.16-1.18-.23-1.64-.23-1.64-.39-1.87s-.39-.32-.62-.32h0a.71.71,0,0,0-.71.71c0,.15.55,3.44.63,3.91a8.7,8.7,0,0,1-.94.94c-.31.31-.55.55-.7.55s-.24-.86-.4-2c0-.08-.31-2.5-.31-2.58a.92.92,0,0,0-.39-.39.45.45,0,0,0-.31-.08.69.69,0,0,0-.71.55c0,.08,0,.39.32,3.13s.39,2.89-.32,3.6l-.62.62a4.18,4.18,0,0,1-.16-.78,3.68,3.68,0,0,0-.31-1.09.59.59,0,0,0-.63-.4.7.7,0,0,0-.7.71c0,.15.39,2,.62,2.82-.08.07-.62.7-1.72,1.8l-1.64,1.64v-2.27a7.75,7.75,0,0,1,.15-2.27c.16-.39.4-.55,1-.94a7.53,7.53,0,0,0,1.33-.94.69.69,0,0,0,0-.78.77.77,0,0,0-.62-.39h-.08c-.16,0-.39.15-1,.62a4.25,4.25,0,0,1-.78.47v-1.17c0-.63,0-.63,2.27-2.35.23-.15,2.27-1.8,2.34-1.88s.08-.23.08-.39a.58.58,0,0,0-.08-.39l-.23-.23a.57.57,0,0,0-.39-.08.29.29,0,0,0-.24.08c-.07.07-1.4,1-1.87,1.4-.86.63-1.57,1.26-1.8,1.41V278a2.77,2.77,0,0,1,.15-1.25c.16-.32.47-.55,1.18-1.1l.23-.16c1.72-1.33,1.72-1.33,1.72-1.64h0a.79.79,0,0,0-.78-.78h0c-.23,0-.23,0-1.49,1l-.07.07c-.4.32-.71.55-.87.71v-2.12c0-2.34,0-2.34-.07-2.5a.74.74,0,0,0-.63-.31,1.23,1.23,0,0,0-.47.15h0c-.23.24-.23.24-.23,2.51v2.27a10.76,10.76,0,0,1-1.1-.78,10.76,10.76,0,0,0-1.41-.94h-.23a1,1,0,0,0-.63.31.57.57,0,0,0,0,.7c.08.16.24.32,2.66,2a1.48,1.48,0,0,1,.63.55,1,1,0,0,1,.08.54v1.33a.6.6,0,0,1-.08.4h0a9.42,9.42,0,0,1-1.72-1.26c-.94-.7-2-1.56-2-1.56a.57.57,0,0,0-.39-.08,1.1,1.1,0,0,0-.47.16.68.68,0,0,0-.23.54.68.68,0,0,0,.23.55c.08.08,1.25,1,2.43,1.88s2.11,1.64,2.27,1.8v1c0,.39,0,.7-.08.7h0a3.13,3.13,0,0,1-.71-.39,4.16,4.16,0,0,0-1.17-.63H118c-.16,0-.23,0-.31.08a.6.6,0,0,0-.32.55.88.88,0,0,0,.24.63c.08.07.7.47,1.25.78a9.92,9.92,0,0,0,1.18.7V287c0,1,0,1.88-.16,1.88a5,5,0,0,1-1.41-1.18c-.94-.94-1.64-1.72-1.8-1.8v-.23c.24-.94.55-2.51.55-2.66a.81.81,0,0,0-.39-.63.48.48,0,0,0-.32-.08.47.47,0,0,0-.31.08c-.31.16-.39.31-.55,1.41a8.27,8.27,0,0,0-.15.86c-.16-.16-.47-.39-.63-.55-.7-.7-.7-.7-.31-3.44,0-.31.39-2.82.31-3a.74.74,0,0,0-.7-.62.81.81,0,0,0-.63.39,12,12,0,0,0-.39,2.5c-.16,1-.24,1.8-.31,2.12l-.79-.79c-.86-.86-.86-.93-.86-1,.08-.24.47-3.6.47-3.76a.45.45,0,0,0-.08-.31.77.77,0,0,0-.62-.39.75.75,0,0,0-.71.47c-.07.15-.15,1-.23,1.56a10.93,10.93,0,0,1-.16,1.18l-1.41-1.41L106.82,276c-.16-.07-.23-.15-.39-.15s-.24,0-.31.08a.74.74,0,0,0-.4.86,10.6,10.6,0,0,0,1.65,1.8,19.45,19.45,0,0,1,1.41,1.48c-.24.08-.63.08-1.18.24-1.64.23-1.64.23-1.88.39a.72.72,0,0,0-.31.62.7.7,0,0,0,.71.71c.15,0,3.44-.55,3.91-.63a4.5,4.5,0,0,1,.94.94c.31.32.62.63.55.71a6.32,6.32,0,0,1-2,.39l-2.58.31a1,1,0,0,0-.39.39.48.48,0,0,0-.08.32.68.68,0,0,0,.55.7h.08c.23,0,1.17-.08,3-.31a20.83,20.83,0,0,1,2.42-.24,1.57,1.57,0,0,1,1.26.55l.62.63a6,6,0,0,1-.78.15,4.27,4.27,0,0,0-1.1.31.6.6,0,0,0-.39.63.71.71,0,0,0,.71.71c.15,0,2-.4,2.81-.63.08.08.71.63,1.8,1.72l1.65,1.64h-2.35a7.75,7.75,0,0,1-2.27-.15c-.39-.16-.55-.39-.94-1a7.53,7.53,0,0,0-.94-1.33.69.69,0,0,0-.39-.08.72.72,0,0,0-.55.24.75.75,0,0,0-.15.54c0,.16.15.4.62,1a4.92,4.92,0,0,1,.47.78h-1.17c-.63,0-.63,0-2.35-2.27-.16-.23-1.8-2.26-1.88-2.34a.57.57,0,0,0-.39-.08h-.08c-.15,0-.23,0-.31.08l-.24.23a.76.76,0,0,0-.07.71c.07.07,1,1.4,1.4,1.87.63.87,1.26,1.57,1.41,1.8h-1.09a2.77,2.77,0,0,1-1.25-.15c-.32-.16-.55-.47-1.1-1.18l-.16-.23C104,287.07,104,287,103.69,287h-.08a.7.7,0,0,0-.7.7h0c0,.24,0,.24,1,1.49l.08.08c.32.39.55.7.71.86h-2.12c-2.34,0-2.34,0-2.5.08a.61.61,0,0,0-.31.47.66.66,0,0,0,.15.54h0c.24.24.24.24,2.51.24h2.27a10.91,10.91,0,0,1-.79,1.09A11.49,11.49,0,0,0,103,294a.61.61,0,0,0,.07.63,1.07,1.07,0,0,0,.55.31c.08,0,.24,0,.31-.08s.32-.23,2-2.66c.55-.7.55-.7.94-.7h1.49a.58.58,0,0,1,.39.08,10.26,10.26,0,0,1-1.26,1.72c-.7.94-1.56,1.95-1.56,2a.72.72,0,0,0,.63,1.1.68.68,0,0,0,.54-.24c.08-.07,1-1.25,1.88-2.42s1.64-2.12,1.8-2.27h1c.39,0,.7,0,.7.08a2.11,2.11,0,0,1-.39.7,3.67,3.67,0,0,0-.62,1.17c0,.24,0,.32.07.4a.61.61,0,0,0,.55.31h.08a.72.72,0,0,0,.55-.24,11.39,11.39,0,0,0,.78-1.25,9.37,9.37,0,0,0,.7-1.17h2.51c1,0,1.8,0,1.88.15s-.47.71-1.18,1.41c-.94.94-1.72,1.65-1.8,1.8h-.23c-.94-.23-2.51-.54-2.66-.54a.79.79,0,0,0-.63.39.6.6,0,0,0,0,.7c.16.31.31.39,1.41.55a5.06,5.06,0,0,0,.86.16c-.16.15-.39.46-.55.62a1.31,1.31,0,0,1-1.17.55,19.21,19.21,0,0,1-2.27-.24c-1.33-.15-2.74-.39-3-.39h0a.67.67,0,0,0-.63.55.68.68,0,0,0,.39.78,10.64,10.64,0,0,0,2.51.39c1,.16,1.8.24,2.11.32l-.78.78c-.63.63-.86.86-.94.86h0c-.24-.08-3.6-.39-3.76-.39a.45.45,0,0,0-.31.08.8.8,0,0,0-.39.7.59.59,0,0,0,.47.63,13.71,13.71,0,0,0,1.56.23,10.93,10.93,0,0,1,1.18.16l-1.41,1.41-1.65,1.64a.82.82,0,0,0-.08.71.83.83,0,0,0,.63.39h.24a10.6,10.6,0,0,0,1.8-1.65,16.82,16.82,0,0,1,1.48-1.4c0,.23.08.62.16,1.17.23,1.64.23,1.64.39,1.88a.72.72,0,0,0,.63.31h0a.7.7,0,0,0,.7-.7c0-.16-.55-3.45-.63-3.92a4.82,4.82,0,0,1,.94-.94c.32-.31.55-.54.71-.54s.23.86.39,2c0,0,.31,2.51.31,2.58a.92.92,0,0,0,.39.39.48.48,0,0,0,.32.08.68.68,0,0,0,.7-.54c0-.08,0-.4-.31-3.14s-.39-2.89.31-3.59l.63-.63a7.89,7.89,0,0,0,.15.78,3.8,3.8,0,0,0,.32,1.1.58.58,0,0,0,.62.39.71.71,0,0,0,.71-.71,27.84,27.84,0,0,0-.63-2.81c.08-.08.63-.71,1.72-1.8l1.65-1.65v2.27a7.24,7.24,0,0,1-.16,2.27c-.16.39-.39.55-1,.94a9.07,9.07,0,0,0-1.33.94.73.73,0,0,0,0,.78.79.79,0,0,0,.63.39h.08c.15,0,.39-.15,1-.62a4.91,4.91,0,0,1,.79-.47v1.17c0,.63,0,.63-2.2,2.35-.07.08-2.26,1.72-2.34,1.88a1,1,0,0,0,0,.78l.23.24a.65.65,0,0,0,.39.07.32.32,0,0,0,.24-.07c.08-.08,1.41-1,1.88-1.41.86-.63,1.56-1.25,1.8-1.41v1.09a2.68,2.68,0,0,1-.16,1.26c-.16.31-.47.54-1.17,1.09l-.24.16c-1.72,1.33-1.72,1.33-1.72,1.64h0a.73.73,0,0,0,.23.55.71.71,0,0,0,.55.23h0c.24,0,.24,0,1.49-1l.08-.08c.39-.31.7-.55.86-.71V309c0,2.35,0,2.35.08,2.5a.51.51,0,0,0,.47.31h.15a.76.76,0,0,0,.71-.46,10,10,0,0,0,.07-2.43v-2c.24.16.63.47,1.1.79a10.76,10.76,0,0,0,1.41.94h.23a1,1,0,0,0,.63-.32.57.57,0,0,0,0-.7c-.08-.16-.24-.31-2.66-2a1.55,1.55,0,0,1-.63-.54,1,1,0,0,1-.08-.55v-1.33a.57.57,0,0,1,.08-.39h0a9.64,9.64,0,0,1,1.72,1.25c.94.7,2,1.56,2,1.56a.57.57,0,0,0,.39.08,1.23,1.23,0,0,0,.47-.15.71.71,0,0,0,.23-.55.7.7,0,0,0-.23-.55c-.08-.08-1.25-1-2.43-1.88s-2.11-1.64-2.27-1.8v-1c0-.4,0-.71.08-.71h0a3.67,3.67,0,0,1,.71.39,4.16,4.16,0,0,0,1.17.63h.08c.16,0,.23,0,.31-.08a.59.59,0,0,0,.32-.55.86.86,0,0,0-.24-.62,14.05,14.05,0,0,0-1.25-.79,9.92,9.92,0,0,0-1.18-.7v-2.51c0-1,0-1.87.16-1.87A5.1,5.1,0,0,1,123,294c.94.94,1.64,1.72,1.8,1.8v.24c-.24.93-.55,2.58-.55,2.66a.8.8,0,0,0,.39.62.48.48,0,0,0,.32.08.47.47,0,0,0,.31-.08c.31-.15.39-.31.55-1.41a8.27,8.27,0,0,0,.15-.86c.16.16.47.39.63.55.7.7.7.7.31,3.44a20.4,20.4,0,0,0-.31,3,.68.68,0,0,0,.7.62.79.79,0,0,0,.63-.39,11.85,11.85,0,0,0,.39-2.5c.16-1,.24-1.8.31-2.12l.79.79C130.14,301.31,130.22,301.31,130.22,301.39Zm6.1,22.69a10.19,10.19,0,0,0,5.09-.23c2.27-.94,2.74-3.06.94-4.31-1-.7-1.8-.86-4-.86s-3.68.55-4.31,1.64C133,321.89,133.82,323.3,136.32,324.08ZM22.62,266.72c.39,2,.39,2.19.86,2.35a1.08,1.08,0,0,0,.47.07,1,1,0,0,0,.78-.39c.16-.23.16-.7-.08-2.19-.23-1.17-.7-3.68-.7-4a6.89,6.89,0,0,1,.86-.94,2.79,2.79,0,0,1,.62-.55,3.13,3.13,0,0,1,.32,1.18,9.17,9.17,0,0,0,.47,1.8,1.09,1.09,0,0,0,.78.39,1,1,0,0,0,.94-.86,15,15,0,0,0-.32-2c-.15-.7-.23-1.25-.31-1.48a2.06,2.06,0,0,1,.47.23,3.43,3.43,0,0,0,.55.23h0a5.15,5.15,0,0,1,.55.24c.31.16,1,.47,1.56.7a3.18,3.18,0,0,1,.78.4c-.23.15-.62.54-1.17.93s-1.33,1.1-1.41,1.18a1.38,1.38,0,0,0,0,1.09,1.12,1.12,0,0,0,.86.4c.16,0,.32,0,.39-.08s.63-.47,1-.79c.16-.15.31-.23.47-.39l.71-.54v2.11a.67.67,0,0,0-.32.15c-.23.16-3.91,2.74-4.15,3a1,1,0,0,0-.31.78,1,1,0,0,0,.31.71,1,1,0,0,0,.71.23,1.1,1.1,0,0,0,.47-.16c.15-.07,2.66-1.87,3.36-2.42v1.64c0,.08,0,.08-.15.16s-2.59,2.11-2.82,2.35a.88.88,0,0,0-.24.86,1.07,1.07,0,0,0,.94.78.72.72,0,0,0,.4-.08,7.74,7.74,0,0,0,1.09-.86,2,2,0,0,1,.63-.47,7.47,7.47,0,0,1,.15,2c0,2.42,0,2.42.16,2.66a1.08,1.08,0,0,0,.55.47h.23a1.44,1.44,0,0,0,.55-.16l.31-.31c.16-.24.16-.24.16-2.59,0-1,0-1.8.16-1.87a3.85,3.85,0,0,1,.54.39,9.9,9.9,0,0,0,1,.78.7.7,0,0,0,.39.08,1,1,0,0,0,.86-.55.83.83,0,0,0,0-.86c-.07-.23-.39-.47-1.56-1.49-1.41-1.17-1.41-1.17-1.41-2.11v-.7s.08,0,.08.07c.78.55,3.36,2.27,3.52,2.35a1,1,0,0,0,.47.08.9.9,0,0,0,.94-.94c0-.55-.08-.55-2.66-2.35-2.35-1.56-2.35-1.56-2.35-1.95v-1.8a10,10,0,0,1,1.1.7c.62.39,1.33.86,1.48.94a1,1,0,0,0,.47.08,1.21,1.21,0,0,0,.71-.31,1,1,0,0,0-.08-1.33c-.16-.08-.94-.63-1.57-1.1s-1-.63-1.17-.78h.08c.31-.16,2.58-.94,3.28-1.26a4.39,4.39,0,0,1,.71-.23h0c0,.23-.08.78-.16,1.49-.23,1.72-.23,1.88-.08,2.19a.91.91,0,0,0,.86.47,1,1,0,0,0,.94-.63,15.31,15.31,0,0,0,.24-1.64c.08-.55.08-.94.15-1.18l1.57,1.57a.08.08,0,0,1-.08.08c-.15.15-.15.31-.78,4.38-.16,1-.16,1.25.16,1.57a.85.85,0,0,0,.7.31,1,1,0,0,0,.86-.55c.08-.16.16-.78.7-3.91a2.84,2.84,0,0,1,.08-.39,5.2,5.2,0,0,1,.55.47c.39.39.63.62.63.7h0a20.21,20.21,0,0,0-.24,2c-.15,2-.15,2,.08,2.35a.9.9,0,0,0,.78.32c.16,0,.32,0,.39-.08.24-.08.4-.39.47-.55s.16-1.64.24-2.27c.39.31,1.17,1.1,1.49,1.41a24.53,24.53,0,0,0,1.87,1.8.72.72,0,0,0,.4.08.55.55,0,0,0,.46-.16.91.91,0,0,0,.4-1.25,18.74,18.74,0,0,0-1.73-1.8c-.62-.63-1.09-1.18-1.4-1.41.23,0,.54-.08.86-.08,1.25-.15,1.48-.15,1.72-.55a1.07,1.07,0,0,0-.08-1.25.82.82,0,0,0-.78-.31c-.32,0-.86.08-1.8.16a10.78,10.78,0,0,1-1.33.07c-.55,0-.71-.15-1.18-.62a2.75,2.75,0,0,1-.47-.55h.16a20.79,20.79,0,0,1,2.27-.39c2-.39,2.19-.39,2.35-.86a1,1,0,0,0-.32-1.25.86.86,0,0,0-.54-.16,14,14,0,0,0-1.73.23c-1.17.24-3.67.71-4,.71a9.59,9.59,0,0,1-.94-.86,3.07,3.07,0,0,1-.54-.63,3.12,3.12,0,0,1,1.17-.31,10.21,10.21,0,0,0,1.8-.47,1,1,0,0,0,.31-1.1.84.84,0,0,0-.86-.62h-.08a12.2,12.2,0,0,0-1.87.31c-.71.16-1.26.23-1.49.31a4.15,4.15,0,0,1,.23-.47,5.7,5.7,0,0,0,.24-.54A5.13,5.13,0,0,1,42,256c.16-.32.47-1,.71-1.57a3.12,3.12,0,0,1,.39-.78c.16.23.55.63.94,1.17a17.23,17.23,0,0,0,1.17,1.41.74.74,0,0,0,.55.16.84.84,0,0,0,.55-.16,1,1,0,0,0,.31-1.25c-.08-.08-.47-.63-.78-1-.16-.15-.24-.31-.39-.47-.24-.31-.47-.62-.55-.7H47a.58.58,0,0,0,.16.31c.16.24,2.74,3.92,3,4.15a1,1,0,0,0,.79.31.85.85,0,0,0,.78-.47,1.19,1.19,0,0,0,0-1c-.08-.16-1.88-2.66-2.43-3.37H51c.07,0,.07,0,.15.16s2.11,2.58,2.35,2.81a1,1,0,0,0,.63.24h.23a.78.78,0,0,0,.63-.55.73.73,0,0,0,0-.78,7.72,7.72,0,0,0-.86-1.1,1.9,1.9,0,0,1-.47-.62,7.09,7.09,0,0,1,2-.16c2.43,0,2.43,0,2.66-.16a.88.88,0,0,0,.47-.86.78.78,0,0,0-.47-.78c-.23-.16-.23-.16-2.58-.16-1,0-1.8,0-1.88-.15s.24-.32.39-.55a4.73,4.73,0,0,0,.79-1,1,1,0,0,0-.47-1.25,1.14,1.14,0,0,0-.47-.16.64.64,0,0,0-.47.16c-.24.08-.47.39-1.49,1.57-1.17,1.4-1.17,1.4-2.11,1.4h-.71a.07.07,0,0,1,.08-.07c.55-.79,2.27-3.37,2.35-3.53a.94.94,0,0,0,.08-.46.9.9,0,0,0-.94-.94h0c-.47,0-.55.07-2.35,2.66-1.56,2.34-1.56,2.34-2,2.34h-1.8a12.47,12.47,0,0,1,.71-1.09c.39-.63.86-1.33.94-1.49a1,1,0,0,0-.24-1.17.86.86,0,0,0-.62-.24.85.85,0,0,0-.71.32c-.08.15-.62.94-1.09,1.56s-.63,1-.79,1.18v-.08c-.15-.32-.93-2.59-1.25-3.29a3.52,3.52,0,0,1-.23-.7h0c.23,0,.78.07,1.48.15,1,.08,1.41.16,1.73.16a.5.5,0,0,0,.47-.16,1,1,0,0,0,.47-.86.92.92,0,0,0-.63-.86,14.18,14.18,0,0,0-1.64-.23,10.93,10.93,0,0,1-1.18-.16l1.57-1.57a.08.08,0,0,1,.08.08c.15.16.31.16,4.38.79a5.94,5.94,0,0,0,.94.07.74.74,0,0,0,.62-.23,1.17,1.17,0,0,0,.32-.86.88.88,0,0,0-.55-.71c-.16-.07-.78-.15-3.91-.7a3.46,3.46,0,0,1-.4-.08c.08-.08.24-.31.47-.55.39-.39.63-.62.71-.62h0a19.43,19.43,0,0,0,2,.23c.86.08,1.41.16,1.72.16a1,1,0,0,0,.71-.24.94.94,0,0,0,.23-1.17c-.07-.23-.39-.39-.54-.47l-2.27-.23c.31-.4,1.09-1.18,1.4-1.49a19.05,19.05,0,0,0,1.8-1.88,1.07,1.07,0,0,0,0-.86,1,1,0,0,0-.86-.55.58.58,0,0,0-.39.08,19.94,19.94,0,0,0-1.8,1.72c-.62.63-1.17,1.1-1.41,1.41,0-.23-.07-.55-.07-.86-.16-1.25-.16-1.49-.55-1.72a.88.88,0,0,0-1.18.15c-.39.4-.39.47-.15,2.59a7.59,7.59,0,0,1,.08,1.72,1.63,1.63,0,0,1-.55.78,2.45,2.45,0,0,1-.55.47v-.16c-.08-.23-.23-1.25-.39-2.27-.39-2-.39-2.19-.86-2.34a1,1,0,0,0-.47-.08,1,1,0,0,0-.78.39c-.16.23-.16.7.07,2.19.24,1.18.71,3.68.71,4a7.73,7.73,0,0,1-.86.94c-.32.31-.55.55-.63.55a3.19,3.19,0,0,1-.31-1.17,8.88,8.88,0,0,0-.47-1.8,1.09,1.09,0,0,0-.78-.4,1,1,0,0,0-.94.87,16.37,16.37,0,0,0,.31,1.95c.16.71.24,1.25.31,1.49a2.9,2.9,0,0,1-.47-.24c-.39-.15-.47-.23-.54-.23h0a4.3,4.3,0,0,1-.55-.24c-.31-.15-1-.47-1.57-.7a3.52,3.52,0,0,1-.78-.39c.24-.16.63-.55,1.17-.94s1.33-1.1,1.41-1.17a1.32,1.32,0,0,0,0-1.1,1.13,1.13,0,0,0-.86-.39.58.58,0,0,0-.39.08c-.08.08-.63.47-1,.78-.15.16-.31.23-.47.39-.31.24-.62.47-.7.55v-2.11a.58.58,0,0,0,.31-.16c.24-.16,3.92-2.74,4.15-3a1,1,0,0,0,.31-.79.9.9,0,0,0-.94-.94,1.14,1.14,0,0,0-.47.16c-.15.08-2.66,1.88-3.36,2.43v-1.65c0-.08,0-.08.16-.15s2.58-2.12,2.81-2.35a.87.87,0,0,0,.24-.86,1.07,1.07,0,0,0-.94-.78.75.75,0,0,0-.39.07,7.72,7.72,0,0,0-1.1.86,2,2,0,0,1-.62.47,7.15,7.15,0,0,1-.16-1.95c0-2.43,0-2.43-.16-2.66a.88.88,0,0,0-.86-.47.78.78,0,0,0-.78.47c-.16.23-.16.23-.16,2.58,0,1,0,1.8-.15,1.88s-.32-.24-.55-.39a8.22,8.22,0,0,0-1-.79.75.75,0,0,0-.39-.07,1,1,0,0,0-.86.54.83.83,0,0,0,0,.86c.08.24.39.47,1.56,1.49,1.41,1.17,1.41,1.17,1.41,2.11v.71a.07.07,0,0,1-.07-.08c-.79-.55-3.37-2.27-3.53-2.35s-.31-.08-.47-.08a1.08,1.08,0,0,0-.54.16,1.2,1.2,0,0,0-.47.63.76.76,0,0,0,.15.7,13.07,13.07,0,0,0,2.51,1.88c2.35,1.56,2.35,1.56,2.35,2V240a10.74,10.74,0,0,1-1.1-.71c-.63-.39-1.33-.86-1.49-.94a1,1,0,0,0-.47-.08,1.16,1.16,0,0,0-.7.32,1,1,0,0,0,.08,1.33c.15.08.94.62,1.56,1.09s1,.63,1.18.78h-.08c-.32.16-2.66.94-3.29,1.26a3.52,3.52,0,0,1-.7.23h0c0-.23.08-.78.15-1.49.24-1.72.24-1.87.08-2.19a.9.9,0,0,0-.86-.47,1,1,0,0,0-.94.63c-.08.16-.15,1.1-.23,1.64a10.93,10.93,0,0,1-.16,1.18L23.56,241s0-.08.07-.08.16-.31.79-4.38c.15-1,.15-1.25-.16-1.56a.84.84,0,0,0-.7-.32,1,1,0,0,0-.87.55c-.07.16-.15.78-.7,3.91a3.46,3.46,0,0,1-.08.4c-.08-.08-.31-.24-.55-.47-.39-.4-.62-.63-.62-.71h0a19.43,19.43,0,0,0,.23-2c.16-2,.16-2-.08-2.35a.88.88,0,0,0-.78-.31.65.65,0,0,0-.39.07.83.83,0,0,0-.47.55c0,.08-.16,1.65-.23,2.27-.39-.31-1.18-1.09-1.49-1.41a21.77,21.77,0,0,0-1.88-1.8.69.69,0,0,0-.39-.08,1.1,1.1,0,0,0-.47.16.91.91,0,0,0-.39,1.25,18.69,18.69,0,0,0,1.72,1.8l1.41,1.41c-.24,0-.55.08-.86.08-1.25.16-1.49.16-1.72.55a1,1,0,0,0,.08,1.25.8.8,0,0,0,.78.31c.31,0,.86-.07,1.8-.15a9.37,9.37,0,0,1,1.33-.08c.55,0,.7.16,1.17.62a2.69,2.69,0,0,1,.47.55h-.16c-.23.08-1.25.24-2.26.39-2,.39-2.2.39-2.35.86a.94.94,0,0,0,.86,1.41,14.22,14.22,0,0,0,1.72-.23c1.17-.24,3.68-.71,4-.71a7.73,7.73,0,0,1,.94.86,2.91,2.91,0,0,1,.55.63,3,3,0,0,1-1.18.31,12,12,0,0,0-1.8.47,1,1,0,0,0-.31,1.1.85.85,0,0,0,.86.63h.08a11.56,11.56,0,0,0,1.88-.32c.7-.15,1.25-.23,1.49-.31a2.53,2.53,0,0,1-.24.47,3.43,3.43,0,0,0-.23.55h0a4.62,4.62,0,0,1-.24.54c-.16.32-.47,1-.7,1.57a4,4,0,0,1-.39.78c-.16-.23-.55-.62-.94-1.17A16.73,16.73,0,0,0,21,247.39a.73.73,0,0,0-.55-.16.81.81,0,0,0-.54.16,1,1,0,0,0-.32,1.25c.08.08.47.63.79,1,.15.16.23.31.39.47.23.31.47.62.55.7H19.17a.64.64,0,0,0-.15-.31c-.16-.24-2.74-3.91-3-4.15a1,1,0,0,0-.78-.31.86.86,0,0,0-.78.47,1.14,1.14,0,0,0,0,1c.08.15,1.88,2.66,2.42,3.36H15.26c-.08,0-.08,0-.16-.16s-2.11-2.58-2.34-2.81a1.06,1.06,0,0,0-.63-.24h-.24a.77.77,0,0,0-.62.55.69.69,0,0,0,0,.78,7.19,7.19,0,0,0,.86,1.1,2.19,2.19,0,0,1,.47.62,7.25,7.25,0,0,1-2,.16c-2.42,0-2.42,0-2.66.16a.9.9,0,0,0-.47.86.79.79,0,0,0,.47.78c.24.16.24.16,2.58.16,1,0,1.8,0,1.88.15s-.23.32-.39.55a4.94,4.94,0,0,0-.78,1,.93.93,0,0,0,.47,1.25,1.05,1.05,0,0,0,.47.16.67.67,0,0,0,.47-.16c.23-.08.47-.39,1.48-1.56,1.18-1.41,1.18-1.41,2.12-1.41H17a.08.08,0,0,1-.08.08c-.54.78-2.27,3.36-2.34,3.52a1,1,0,0,0,0,.94.9.9,0,0,0,.86.47,1.39,1.39,0,0,0,.54-.16,13.13,13.13,0,0,0,1.88-2.5c1.57-2.35,1.57-2.35,2-2.35h1.8c-.16.23-.39.55-.71,1.09s-.86,1.33-.93,1.49a1,1,0,0,0,.23,1.17.88.88,0,0,0,.63.24.86.86,0,0,0,.7-.31c.08-.16.63-.94,1.1-1.57a6.48,6.48,0,0,1,.78-1.17v.07c.16.32.94,2.67,1.25,3.29a3.7,3.7,0,0,1,.24.71V258c-.24,0-.79-.07-1.49-.15-1-.08-1.41-.16-1.72-.16s-.32,0-.47.16a1,1,0,0,0-.47.86.91.91,0,0,0,.62.86c.16.08,1.26.16,1.65.23a10.3,10.3,0,0,1,1.17.16l-1.56,1.57a.08.08,0,0,1-.08-.08c-.16-.16-.32-.16-4.38-.79a6,6,0,0,0-.94-.07.76.76,0,0,0-.63.23,1.21,1.21,0,0,0-.31.86.86.86,0,0,0,.55.71c.15.07.78.15,3.91.7a3.7,3.7,0,0,1,.39.08c-.08.08-.24.31-.47.55a3.09,3.09,0,0,1-.7.62h0a19.91,19.91,0,0,0-2-.23A17.14,17.14,0,0,0,16.2,264a1,1,0,0,0-.71.23,1,1,0,0,0-.23,1.18,1.57,1.57,0,0,0,.55.47c.08,0,1.64.15,2.27.23-.32.39-1.1,1.18-1.41,1.49a21.77,21.77,0,0,0-1.8,1.88,1.07,1.07,0,0,0,0,.86,1,1,0,0,0,.86.55.57.57,0,0,0,.39-.08,20,20,0,0,0,1.8-1.72c.63-.63,1.17-1.1,1.41-1.41,0,.23.08.55.08.86.15,1.25.15,1.49.55,1.72a.86.86,0,0,0,1.17-.16c.39-.39.39-.47.16-2.58a7,7,0,0,1-.08-1.72,1.57,1.57,0,0,1,.55-.78,2.44,2.44,0,0,1,.54-.47v.15A15.41,15.41,0,0,0,22.62,266.72Zm102.9,144.62a.77.77,0,0,0-.15-.55h0c-.24-.24-.24-.24-2.35-.24h-2.19a12.07,12.07,0,0,1,.78-1s.86-1.18.94-1.33a.82.82,0,0,0-.08-.63.76.76,0,0,0-.55-.31.47.47,0,0,0-.31.08c-.16.07-.31.23-2,2.5-.47.7-.47.7-.86.7h-1.41a.65.65,0,0,1-.39-.07,6.12,6.12,0,0,1,1.18-1.65c.7-.86,1.41-1.88,1.48-1.88a.59.59,0,0,0-.07-.78.72.72,0,0,0-.47-.23.73.73,0,0,0-.55.23c-.08.08-.94,1.18-1.8,2.27s-1.57,2-1.64,2.11h-1a1.76,1.76,0,0,1-.71-.07,4,4,0,0,1,.32-.63c.47-.78.54-.86.54-1.1a.79.79,0,0,0-.07-.39c-.16-.15-.32-.31-.47-.31h-.08a.55.55,0,0,0-.47.24c-.08.07-.47.7-.78,1.17s-.63,1-.71,1.09h-2.35a4.4,4.4,0,0,1-1.8-.15c-.07-.16.47-.71,1.18-1.33a20.38,20.38,0,0,1,1.72-1.65h.23c.94.16,2.43.47,2.51.47a.59.59,0,0,0,.55-.39.83.83,0,0,0,0-.62c-.16-.32-.32-.32-1.33-.55a4.53,4.53,0,0,0-.79-.16l.55-.55a1.27,1.27,0,0,1,1.1-.54,15.7,15.7,0,0,1,2.11.23c1.49.16,2.66.31,2.82.31h0a.53.53,0,0,0,.55-.54.57.57,0,0,0-.4-.71A10.6,10.6,0,0,0,116,404a15,15,0,0,0-2-.23l.71-.71c.62-.62.86-.86.94-.86h0c.23.08,3.36.39,3.52.39a.47.47,0,0,0,.31-.08.69.69,0,0,0,.39-.62c0-.31-.16-.47-.47-.63a10,10,0,0,0-1.49-.23,8.6,8.6,0,0,1-1.09-.16l1.33-1.33,1.56-1.56a.76.76,0,0,0,.08-.71.69.69,0,0,0-.62-.39H119a14.11,14.11,0,0,0-1.72,1.56,18.29,18.29,0,0,1-1.41,1.34,8.72,8.72,0,0,0-.16-1.1,7.57,7.57,0,0,0-.31-1.72c-.08-.24-.31-.32-.63-.32h0a.64.64,0,0,0-.62.71c0,.16.47,3.29.55,3.68a5.52,5.52,0,0,1-.86.94c-.32.31-.55.54-.63.54s-.24-.78-.39-1.87c0-.08-.32-2.35-.32-2.43a1.44,1.44,0,0,0-.31-.39c-.08,0-.23-.08-.31-.08a.61.61,0,0,0-.63.55c0,.08,0,.39.32,3,.31,2.74.31,2.74-.32,3.45a1.82,1.82,0,0,1-.62.54,3.93,3.93,0,0,0-.16-.7,5,5,0,0,0-.31-1.1.63.63,0,0,0-.63-.39.69.69,0,0,0-.7.63c0,.15.39,1.95.54,2.66-.07.08-.54.62-1.64,1.72-.7.7-1.25,1.25-1.56,1.49v-2.12a7.41,7.41,0,0,1,.15-2.19c.16-.39.39-.54.94-.94,1-.62,1.18-.78,1.25-.93a.67.67,0,0,0-.54-1h-.08c-.16,0-.32.15-1,.55a6.46,6.46,0,0,1-.7.47v-1.18c0-.62,0-.62,2.11-2.19a18.33,18.33,0,0,0,2.19-1.8.45.45,0,0,0,.08-.31.67.67,0,0,0-.08-.39c-.08-.08-.16-.16-.16-.24s-.23-.08-.39-.08a.27.27,0,0,0-.23.08c-.08.08-1.33.94-1.8,1.33-.78.63-1.49,1.18-1.72,1.33v-1a2.27,2.27,0,0,1,.15-1.17,4.92,4.92,0,0,1,1.1-1l.23-.15c1.65-1.26,1.65-1.26,1.65-1.57h0a.67.67,0,0,0-.16-.47.59.59,0,0,0-.47-.15h0c-.23,0-.23,0-1.41.93l-.08.08a3.51,3.51,0,0,1-.86.63v-2c0-2.19,0-2.19-.08-2.35a.58.58,0,0,0-.54-.31,1.05,1.05,0,0,0-.47.16h0c-.24.23-.24.23-.24,2.35v2.19c-.15-.16-.55-.39-1-.79,0,0-1.17-.86-1.33-.93h-.23a.66.66,0,0,0-.55.31.6.6,0,0,0,0,.7c.08.16.24.32,2.51,2,.31.23.54.39.62.47s.08.23.08.55V400h0a6.26,6.26,0,0,1-1.64-1.17c-.86-.71-1.88-1.41-1.88-1.49a.58.58,0,0,0-.39-.08,1.05,1.05,0,0,0-.47.16.65.65,0,0,0-.24.47.68.68,0,0,0,.24.54c.08.08,1.17.94,2.27,1.8s2,1.57,2.11,1.65v.94a1.5,1.5,0,0,1-.08.7h0a3.63,3.63,0,0,1-.62-.31c-.79-.47-.86-.55-1.1-.55h-.08a.47.47,0,0,0-.31.08c-.16.16-.31.31-.31.47a.71.71,0,0,0,.23.55c.08.07.71.47,1.17.78s1,.62,1.1.7v2.35c0,1,0,1.8-.16,1.8s-.62-.47-1.33-1.17a21.09,21.09,0,0,1-1.64-1.72v-.24c.16-.94.47-2.43.47-2.5a.59.59,0,0,0-.39-.55.47.47,0,0,0-.31-.08.48.48,0,0,0-.32.08c-.31.16-.31.31-.55,1.33a7.89,7.89,0,0,0-.15.78l-.55-.55c-.63-.62-.63-.62-.31-3.2,0-.24.31-2.67.31-2.82a.69.69,0,0,0-.7-.63.81.81,0,0,0-.63.39,10,10,0,0,0-.39,2.35,15.41,15.41,0,0,0-.24,2l-.7-.71c-.78-.86-.86-.86-.86-.94.08-.23.39-3.36.39-3.52a.45.45,0,0,0-.08-.31.61.61,0,0,0-.62-.39.59.59,0,0,0-.63.47,9.22,9.22,0,0,0-.24,1.48,9.8,9.8,0,0,1-.15,1.1l-1.33-1.33-1.57-1.57A.76.76,0,0,0,92,397a.51.51,0,0,0-.31.07.69.69,0,0,0-.39.79,15.24,15.24,0,0,0,1.56,1.72A13.4,13.4,0,0,1,94.14,401a10.71,10.71,0,0,0-1.09.15,7.78,7.78,0,0,0-1.72.32c-.24.08-.32.31-.32.62a.65.65,0,0,0,.71.63c.15,0,3.21-.47,3.67-.55a12.7,12.7,0,0,1,.94.86c.32.31.55.55.55.71s-.78.23-1.88.39c0,0-2.34.31-2.42.31a1.7,1.7,0,0,0-.39.31.48.48,0,0,0-.08.32.6.6,0,0,0,.55.62h.07c.16,0,1.1-.08,2.9-.31a19.21,19.21,0,0,1,2.27-.24c.63,0,.7.16,1.17.55a2.91,2.91,0,0,1,.55.63,3.75,3.75,0,0,0-.7.16,4.49,4.49,0,0,0-1.1.31.62.62,0,0,0-.39.62.69.69,0,0,0,.63.71c.15,0,2-.39,2.66-.55.07.08.62.55,1.72,1.64.7.71,1.25,1.26,1.48,1.57h-2.19a7,7,0,0,1-2.19-.16c-.39-.15-.55-.39-.94-.94-.62-1-.78-1.17-.94-1.25s-.23-.08-.39-.08a.68.68,0,0,0-.54.24c-.16.15-.16.31-.16.55s.16.31.55,1a6.34,6.34,0,0,1,.47.71H96.41c-.62,0-.62,0-2.19-2.12a18.33,18.33,0,0,0-1.8-2.19.51.51,0,0,0-.31-.07H92a.62.62,0,0,0-.31.07c-.08.08-.16.16-.24.16a.93.93,0,0,0-.08.63c.08.07.94,1.33,1.33,1.8.63.78,1.18,1.48,1.33,1.72h-1a2.17,2.17,0,0,1-1.18-.16,5.07,5.07,0,0,1-1-1.09l-.16-.24c-1.25-1.56-1.25-1.64-1.57-1.64h-.07a.7.7,0,0,0-.71.7h0c0,.24,0,.24.94,1.41l.08.08a3.8,3.8,0,0,1,.63.86H88c-2.19,0-2.19,0-2.35.08a.63.63,0,0,0-.31.47.75.75,0,0,0,.15.54h0c.24.24.24.24,2.35.24h2.19c-.15.16-.39.55-.78,1,0,0-.86,1.17-.94,1.33a.8.8,0,0,0,.08.62.79.79,0,0,0,.55.32.45.45,0,0,0,.31-.08c.16-.08.31-.24,2-2.51.47-.7.47-.7.86-.7h1.8a6.17,6.17,0,0,1-1.18,1.64c-.7.86-1.4,1.88-1.48,1.88a.58.58,0,0,0,.08.78.65.65,0,0,0,.47.24.68.68,0,0,0,.54-.24c.08-.07.94-1.17,1.8-2.27s1.57-1.95,1.65-2.11h1a1.53,1.53,0,0,1,.71.08,4.45,4.45,0,0,1-.32.63c-.46.78-.54.86-.54,1.09a.67.67,0,0,0,.08.39c.15.16.31.32.46.32h.08a.55.55,0,0,0,.47-.24c.08-.08.47-.7.79-1.17s.62-1,.7-1.1h2.35c.94,0,1.72,0,1.8.16s-.47.7-1.18,1.33a19.4,19.4,0,0,1-1.72,1.64h-.23c-.94-.15-2.43-.47-2.51-.47a.6.6,0,0,0-.55.39,1,1,0,0,0,0,.63c.16.31.32.31,1.34.55a4.1,4.1,0,0,0,.78.15l-.55.55c-.39.39-.55.55-1.1.55a16.26,16.26,0,0,1-2.11-.24c-1.25-.15-2.58-.31-2.82-.31h0a.67.67,0,0,0-.62.55.55.55,0,0,0,.39.7,10.27,10.27,0,0,0,2.35.4,16.83,16.83,0,0,0,2,.23l-.7.7c-.63.63-.86.86-.94.86h0c-.24-.07-3.37-.39-3.52-.39a.48.48,0,0,0-.32.08.71.71,0,0,0-.39.63c0,.31.16.47.47.62a9.63,9.63,0,0,0,1.49.24,8.31,8.31,0,0,1,1.09.16l-1.33,1.33-1.56,1.56a.76.76,0,0,0-.08.71.71.71,0,0,0,.63.39h.15a14.45,14.45,0,0,0,1.73-1.57,18.13,18.13,0,0,1,1.4-1.33,8.72,8.72,0,0,0,.16,1.1,10.3,10.3,0,0,0,.31,1.72c.08.23.32.31.63.31h0a.64.64,0,0,0,.63-.7c0-.16-.47-3.21-.55-3.68,0-.08.39-.39.86-.94a2.79,2.79,0,0,1,.62-.55c.16,0,.24.78.4,1.88,0,0,.31,2.35.31,2.43a1.89,1.89,0,0,0,.31.39.47.47,0,0,0,.31.08.61.61,0,0,0,.63-.55c0-.08,0-.32-.31-3s-.32-2.74.31-3.44a1.89,1.89,0,0,1,.63-.55,4.81,4.81,0,0,0,.15.71,4.59,4.59,0,0,0,.32,1.09.6.6,0,0,0,.62.39.69.69,0,0,0,.71-.62c0-.16-.39-2-.55-2.66.08-.08.55-.63,1.64-1.72a18.73,18.73,0,0,1,1.57-1.49v2.19a7,7,0,0,1-.16,2.19c-.16.39-.39.55-.94.94-1,.63-1.17.78-1.25.94a.57.57,0,0,0,0,.7.59.59,0,0,0,.55.32H103c.15,0,.31-.16,1-.55a5.16,5.16,0,0,1,.71-.47v1.17c0,.63,0,.63-2.12,2.19a27.21,27.21,0,0,0-2.19,1.8.54.54,0,0,0-.07.32.79.79,0,0,0,.07.39c.08.08.16.16.16.23a.57.57,0,0,0,.39.08.29.29,0,0,0,.24-.08c.07-.07,1.33-.94,1.8-1.33.78-.62,1.48-1.17,1.72-1.33v1c0,.63,0,.94-.16,1.17a4.79,4.79,0,0,1-1.09,1l-.24.16c-1.64,1.25-1.64,1.25-1.64,1.56h0a.7.7,0,0,0,.15.47.58.58,0,0,0,.47.16h0c.24,0,.24,0,1.41-.94l.08-.08a3.59,3.59,0,0,1,.86-.62v1.95c0,2.19,0,2.19.08,2.35a.5.5,0,0,0,.39.31h.16a.65.65,0,0,0,.62-.47c.08-.08.08-.39.08-2.27V426.6a10.4,10.4,0,0,1,1,.78s1.17.86,1.33.94h.23A.53.53,0,0,0,109,428a.59.59,0,0,0,0-.71c-.08-.16-.23-.31-2.5-1.95-.32-.24-.55-.4-.63-.47s-.08-.24-.08-.55v-1.65h0a6.41,6.41,0,0,1,1.65,1.18c.86.7,1.87,1.41,1.87,1.49a.67.67,0,0,0,.4.07,1.12,1.12,0,0,0,.47-.15.72.72,0,0,0,.23-.47.73.73,0,0,0-.23-.55c-.08-.08-1.18-.94-2.27-1.8s-2-1.57-2.12-1.64v-.94a1.53,1.53,0,0,1,.08-.71h0a4.45,4.45,0,0,1,.63.32c.78.47.86.54,1.09.54h.08A.49.49,0,0,0,108,420c.16-.16.32-.32.32-.47a.69.69,0,0,0-.24-.55c-.08-.08-.7-.47-1.17-.78s-1-.63-1.1-.71v-2.35c0-1,0-1.8.16-1.8s.63.47,1.33,1.18a17.84,17.84,0,0,1,1.64,1.72v.23c-.15.94-.47,2.43-.47,2.51a.6.6,0,0,0,.4.55.49.49,0,0,0,.31.07.51.51,0,0,0,.31-.07c.31-.16.31-.32.55-1.33a6.66,6.66,0,0,0,.16-.79l.54.55c.63.63.63.63.32,3.21-.16,1-.32,2.66-.32,2.82a.68.68,0,0,0,.71.62.77.77,0,0,0,.62-.39,10,10,0,0,0,.39-2.35,15.5,15.5,0,0,0,.24-2l.7.7c.79.86.86.86.86.94-.07.24-.39,3.37-.39,3.52a.48.48,0,0,0,.08.32.63.63,0,0,0,.63.39.59.59,0,0,0,.62-.47,9.63,9.63,0,0,0,.24-1.49c.08-.47.08-.86.16-1.09l1.33,1.33,1.56,1.56c.16.08.24.16.39.16s.24,0,.31-.08a.69.69,0,0,0,.4-.78,14.1,14.1,0,0,0-1.57-1.72c-.62-.63-1.17-1.18-1.33-1.41a8.72,8.72,0,0,0,1.1-.16,8,8,0,0,0,1.72-.31c.23-.08.31-.32.31-.63a.63.63,0,0,0-.7-.62c-.16,0-3.21.46-3.68.54-.08,0-.39-.39-.94-.86-.31-.31-.55-.55-.55-.7s.78-.24,1.88-.39c0,0,2.35-.32,2.43-.32a1.61,1.61,0,0,0,.39-.31.45.45,0,0,0,.08-.31.61.61,0,0,0-.55-.63h-.08c-.24,0-1.1.08-2.9.31a19.21,19.21,0,0,1-2.27.24c-.62,0-.7-.16-1.17-.55a3.28,3.28,0,0,1-.55-.62,4,4,0,0,0,.71-.16,5.28,5.28,0,0,0,1.09-.31.62.62,0,0,0,.39-.63.68.68,0,0,0-.62-.7c-.16,0-2,.39-2.66.54-.08-.07-.63-.54-1.72-1.64-.63-.7-1.26-1.25-1.49-1.57h2.19a7,7,0,0,1,2.19.16c.39.16.55.39.94.94.63,1,.78,1.17.94,1.25a.57.57,0,0,0,.39.08.73.73,0,0,0,.55-.23.69.69,0,0,0,.15-.55c0-.16-.15-.31-.54-1a5.23,5.23,0,0,1-.47-.7h1.17c.63,0,.63,0,2.19,2.11a19.35,19.35,0,0,0,1.8,2.19.48.48,0,0,0,.32.08h.07a.6.6,0,0,0,.32-.08c.07-.08.15-.16.23-.16a.85.85,0,0,0,.08-.62c-.08-.08-.94-1.33-1.33-1.8-.63-.78-1.17-1.49-1.33-1.72h1A2.25,2.25,0,0,1,119,412a4.92,4.92,0,0,1,1,1.1l.15.23c1.26,1.57,1.26,1.65,1.57,1.65h.08a.7.7,0,0,0,.7-.71h0c0-.23,0-.23-.94-1.41l-.08-.07a3.91,3.91,0,0,1-.62-.87h2c2.2,0,2.2,0,2.35-.07A.59.59,0,0,0,125.52,411.34Zm110.42.08a1.06,1.06,0,0,0-.54-1c-.32-.24-.32-.24-3.37-.24a7.83,7.83,0,0,1-2.43-.15,3.75,3.75,0,0,1,.47-.71,13.8,13.8,0,0,0,1-1.33,1.34,1.34,0,0,0-.55-1.64,1.94,1.94,0,0,0-.54-.16,1.89,1.89,0,0,0-.55.16,13.12,13.12,0,0,0-1.88,2c-1.49,1.8-1.49,1.8-2.74,1.8h-.94l.08-.07c.7-1,3-4.31,3.05-4.47a1.78,1.78,0,0,0,.16-.62,1.13,1.13,0,0,0-1.25-1.18h-.08c-.63,0-.71.16-3,3.45-2,3-2,3-2.58,3h-2.35c.16-.23.47-.7.87-1.41s1.09-1.72,1.17-1.88a1.2,1.2,0,0,0-.31-1.48,1.39,1.39,0,0,0-.79-.32,1.64,1.64,0,0,0-.94.4,23.24,23.24,0,0,0-1.4,2c-.47.71-.86,1.25-1,1.57a.08.08,0,0,0-.08-.08c-.16-.39-1.25-3.37-1.56-4.23a3.14,3.14,0,0,1-.32-.94v-.08a12.63,12.63,0,0,1,1.88.24,21.28,21.28,0,0,0,2.19.23,1.24,1.24,0,0,0,.63-.15,1.39,1.39,0,0,0,.62-1.18,1.24,1.24,0,0,0-.78-1.09,16.57,16.57,0,0,0-2.11-.31c-.71-.08-1.25-.16-1.57-.16.47-.47,1.65-1.72,2-2l.08.08c.23.16.39.24,5.71,1a12.31,12.31,0,0,0,1.25.15,1.15,1.15,0,0,0,.86-.31,1.12,1.12,0,0,0,.39-1.09,1.2,1.2,0,0,0-.7-.94c-.23-.08-1-.24-5-.86-.15,0-.39-.08-.47-.08a4.36,4.36,0,0,1,.63-.71,5.68,5.68,0,0,1,.94-.86h0c.23.08,2.58.32,2.58.32,1.17.07,1.8.15,2.19.15a1,1,0,0,0,.86-.31,1.33,1.33,0,0,0,.32-1.49,1.54,1.54,0,0,0-.79-.62c-.15-.08-2.11-.24-3-.32.39-.47,1.49-1.48,1.88-1.88,2.19-2.19,2.27-2.34,2.27-2.42a1.14,1.14,0,0,0-.08-1.1,1.34,1.34,0,0,0-1.1-.7,1.49,1.49,0,0,0-.55.16,19.74,19.74,0,0,0-2.26,2.19l-1.8,1.8c0-.24-.08-.63-.08-1.18-.16-1.56-.24-1.88-.71-2.19a1.16,1.16,0,0,0-1.56.16c-.47.47-.47.55-.24,3.28a11.43,11.43,0,0,1,.08,2.2c-.08.39-.31.54-.7,1a3.91,3.91,0,0,1-.71.63.29.29,0,0,0-.08-.24c-.07-.31-.31-1.56-.54-2.89-.47-2.58-.55-2.82-1.1-3a1.44,1.44,0,0,0-.55-.16,1.33,1.33,0,0,0-1,.55c-.24.31-.24.94.15,2.82.32,1.48.86,4.69.94,5.08a7.07,7.07,0,0,1-1.09,1.18c-.4.39-.71.7-.87.7s-.31-.78-.46-1.56c-.4-1.88-.47-2.12-.63-2.35a1.26,1.26,0,0,0-1-.47,1.13,1.13,0,0,0-1.17,1.09,17.68,17.68,0,0,0,.39,2.51c.16.94.31,1.64.39,1.95l-.63-.31a2.83,2.83,0,0,0-.7-.31h0s-.31-.16-.7-.32-1.33-.62-2-.93a6.33,6.33,0,0,1-1-.55,11,11,0,0,1,1.49-1.18,14.32,14.32,0,0,0,1.8-1.56,1.47,1.47,0,0,0,0-1.41,1.24,1.24,0,0,0-1.64-.39,11.29,11.29,0,0,0-1.33,1,2.93,2.93,0,0,0-.55.47,9.32,9.32,0,0,1-.94.7v-2.74a.58.58,0,0,0,.39-.16c.31-.15,5-3.52,5.32-3.83a1.24,1.24,0,0,0,.47-1,1.17,1.17,0,0,0-1.25-1.17,1.5,1.5,0,0,0-.63.16c-.15.07-3.44,2.42-4.3,3v-2.12c0-.07,0-.07.16-.15.31-.24,3.36-2.74,3.6-3.05a1.18,1.18,0,0,0,.31-1.1,1.27,1.27,0,0,0-1.25-.94,1,1,0,0,0-.47.08c-.16.08-.94.7-1.49,1.1a2.25,2.25,0,0,1-.78.54,7.59,7.59,0,0,1-.16-2.5c0-3.05,0-3.13-.15-3.44a1.25,1.25,0,0,0-1.1-.63,1.07,1.07,0,0,0-1,.55c-.23.31-.23.31-.23,3.36a7.35,7.35,0,0,1-.16,2.43,3.49,3.49,0,0,1-.7-.47c-.47-.39-1.18-.94-1.33-1a1,1,0,0,0-.47-.08,1.27,1.27,0,0,0-1.1.63,1,1,0,0,0,0,1.09,13,13,0,0,0,2,1.88c1.8,1.49,1.8,1.49,1.8,2.74v.94l-.08-.08c-1-.7-4.31-3-4.46-3.05a1.44,1.44,0,0,0-.55-.16,1.46,1.46,0,0,0-.63.16,1.11,1.11,0,0,0-.54.78,1.29,1.29,0,0,0,.15.94,31.88,31.88,0,0,0,3.29,2.35c3,2,3,2,3,2.58a11.53,11.53,0,0,1,0,2.35,16,16,0,0,0-1.41-.86,20.7,20.7,0,0,0-1.87-1.17,1.49,1.49,0,0,0-.55-.16,1.35,1.35,0,0,0-.94.47,1.23,1.23,0,0,0,.08,1.72,22.62,22.62,0,0,0,2,1.41c.71.47,1.25.86,1.57,1,0,0-.08,0-.08.07-.39.16-3.37,1.26-4.23,1.57a2.52,2.52,0,0,1-.94.31H195a12.5,12.5,0,0,1,.23-1.88c.23-2.19.31-2.42.08-2.81a1.27,1.27,0,0,0-1.1-.63,1.35,1.35,0,0,0-1.17.78,16.5,16.5,0,0,0-.31,2.12c-.08.7-.16,1.25-.16,1.56-.47-.47-1.72-1.64-2-1.95l.08-.08c.16-.24.24-.39,1-5.72.23-1.33.23-1.64-.16-2a1.31,1.31,0,0,0-.94-.39,1.09,1.09,0,0,0-1.09.7c-.08.24-.24,1-.86,5,0,.16-.08.39-.08.47a3.91,3.91,0,0,1-.71-.63,5.82,5.82,0,0,1-.86-.93h0c.08-.24.32-2.59.32-2.59.23-2.58.23-2.58-.16-3.05a1.33,1.33,0,0,0-.94-.39,1.15,1.15,0,0,0-.55.16,1.57,1.57,0,0,0-.62.78c-.08.16-.24,2.11-.32,3-.47-.39-1.48-1.48-1.87-1.88-2.2-2.19-2.35-2.26-2.51-2.26a1,1,0,0,0-.47-.08,2.73,2.73,0,0,0-.62.15,1.2,1.2,0,0,0-.55,1.65,20.76,20.76,0,0,0,2.19,2.27c.78.78,1.41,1.48,1.8,1.8-.24,0-.71.07-1.17.07-1.57.16-1.88.24-2.2.71a1.18,1.18,0,0,0,.16,1.56,1.23,1.23,0,0,0,1,.4c.39,0,1.09-.08,2.27-.16.78-.08,1.33-.16,1.72-.16.7,0,.86.16,1.49.78a4.17,4.17,0,0,1,.62.71.27.27,0,0,0-.23.08c-.32.08-1.65.31-2.9.55-2.58.46-2.82.54-3,1.09a1.25,1.25,0,0,0,.39,1.64,1.55,1.55,0,0,0,.71.16,12.9,12.9,0,0,0,2.19-.31c1.48-.32,4.69-.86,5.08-.94a7.07,7.07,0,0,1,1.18,1.09c.31.32.78.71.7.86s-.78.32-1.56.47c-1.88.4-2.12.47-2.35.63a1.27,1.27,0,0,0-.47,1.33,1.29,1.29,0,0,0,1.09.86h.08c.32,0,.94-.15,2.43-.39.86-.16,1.64-.31,2-.39l-.32.63a2.83,2.83,0,0,0-.31.7h0s-.16.31-.31.7-.63,1.33-.94,2c-.24.47-.39.86-.47,1a11,11,0,0,1-1.18-1.49,15.22,15.22,0,0,0-1.56-1.8,1.28,1.28,0,0,0-.71-.16,1.25,1.25,0,0,0-.7.16,1.24,1.24,0,0,0-.39,1.56,11.29,11.29,0,0,0,1,1.33,2.64,2.64,0,0,0,.47.55,9.32,9.32,0,0,1,.7.94h-2.74a.58.58,0,0,0-.16-.39c-.15-.31-3.52-5-3.83-5.32a1.27,1.27,0,0,0-1-.47,1.13,1.13,0,0,0-1,.63,1.22,1.22,0,0,0,0,1.25c.08.15,2.43,3.44,3.06,4.3h-2.12c-.07,0-.07,0-.15-.16-.24-.31-2.74-3.36-3.05-3.6a1.21,1.21,0,0,0-.87-.31H175a1.25,1.25,0,0,0-.86,1.72c.08.16.71.94,1.1,1.49a4.84,4.84,0,0,1,.54.78,7.56,7.56,0,0,1-2.5.16c-3,0-3.13,0-3.44.16a1.24,1.24,0,0,0-.63,1.09,1.07,1.07,0,0,0,.55,1c.31.23.31.23,3.36.23a7.35,7.35,0,0,1,2.43.16,3.49,3.49,0,0,1-.47.7,15.46,15.46,0,0,0-1,1.34,1.35,1.35,0,0,0,.55,1.64,1.91,1.91,0,0,0,.55.15,2,2,0,0,0,.55-.15,13.87,13.87,0,0,0,1.87-2c1.49-1.8,1.49-1.8,2.74-1.8h.94l-.08.08c-.7,1-3,4.31-3,4.46a1.79,1.79,0,0,0,0,1.25,1.18,1.18,0,0,0,1.1.55,1.29,1.29,0,0,0,.7-.23,31.88,31.88,0,0,0,2.35-3.29c2-3,2-3,2.58-3h2.35c-.16.23-.47.78-.86,1.41a20.7,20.7,0,0,0-1.17,1.87,1.2,1.2,0,0,0,.31,1.49,1.35,1.35,0,0,0,.78.31,1.59,1.59,0,0,0,.94-.39,22.62,22.62,0,0,0,1.41-2c.47-.71.86-1.25,1-1.57,0,0,0,.08.07.08.16.39,1.26,3.37,1.57,4.23a2.52,2.52,0,0,1,.31.94v.07a12.36,12.36,0,0,1-1.88-.23c-1.25-.16-1.8-.24-2.19-.24a1.16,1.16,0,0,0-.62.16,1.4,1.4,0,0,0-.63,1.18A1.25,1.25,0,0,0,187,421c.16.08,1.57.24,2.12.31s1.25.16,1.56.16c-.47.47-1.64,1.72-2,2l-.07-.08c-.24-.16-.39-.24-5.72-1-.62-.08-.94-.16-1.25-.16a1.16,1.16,0,0,0-.86.32,1.14,1.14,0,0,0-.39,1.09,1.24,1.24,0,0,0,.7.94c.24.08,1,.24,5,.86.16,0,.39.08.47.08a4.17,4.17,0,0,1-.62.71,5.68,5.68,0,0,1-.94.86h0c-.24-.08-2.59-.32-2.59-.32-1.17-.07-1.8-.15-2.19-.15a1,1,0,0,0-.86.31,1.31,1.31,0,0,0-.31,1.49,1.61,1.61,0,0,0,.78.62c.16.08,2.11.24,3,.32-.4.47-1.49,1.48-1.88,1.87-2.19,2.2-2.27,2.35-2.27,2.43a1.09,1.09,0,0,0,.08,1.1,1.31,1.31,0,0,0,1.09.7,1.44,1.44,0,0,0,.55-.16,30.28,30.28,0,0,0,2.27-2.19c.86-.78,1.49-1.48,1.8-1.8,0,.24.08.71.08,1.18.15,1.56.23,1.87.7,2.19a1.33,1.33,0,0,0,.71.23,1.25,1.25,0,0,0,.86-.39c.47-.47.47-.55.23-3.29A11.33,11.33,0,0,1,187,429c.08-.39.32-.54.71-1a4,4,0,0,1,.7-.63.26.26,0,0,0,.08.23c.08.32.31,1.65.55,2.9.47,2.58.55,2.82,1.09,3.05a1.44,1.44,0,0,0,.55.16,1.37,1.37,0,0,0,1-.55c.23-.31.23-.94-.16-2.82-.31-1.48-.86-4.69-.94-5.08a7.22,7.22,0,0,1,1.1-1.18c.39-.39.7-.7.86-.7s.31.78.47,1.56c.39,1.88.47,2.12.63,2.35a1.25,1.25,0,0,0,1,.47,1.13,1.13,0,0,0,1.18-1.09,16.94,16.94,0,0,0-.4-2.51c-.15-.86-.31-1.64-.39-2l.63.32a3.24,3.24,0,0,0,.7.31h0s.32.16.71.31,1.33.63,2,.94a5.61,5.61,0,0,1,1,.55,9.32,9.32,0,0,1-1.49,1.17,15.9,15.9,0,0,0-1.8,1.57,1.53,1.53,0,0,0,0,1.41,1.4,1.4,0,0,0,1.1.55,1.44,1.44,0,0,0,.55-.16,13.32,13.32,0,0,0,1.33-1,3.29,3.29,0,0,0,.55-.47,10.94,10.94,0,0,1,.93-.7v2.74a.66.66,0,0,0-.39.15c-.31.16-5,3.53-5.32,3.84a1.27,1.27,0,0,0-.47,1,1.29,1.29,0,0,0,.39.86,1.21,1.21,0,0,0,.86.31,1.46,1.46,0,0,0,.63-.16c.16-.07,3.44-2.42,4.3-3.05v2.11c0,.08,0,.08-.15.16-.32.24-3.37,2.74-3.6,3a1.18,1.18,0,0,0-.32,1.1,1.28,1.28,0,0,0,1.26.94A1,1,0,0,0,199,440c.15-.08.94-.71,1.48-1.1a2.34,2.34,0,0,1,.79-.54,8,8,0,0,1,.15,2.5c0,3.05,0,3.13.16,3.44a1.07,1.07,0,0,0,.78.63h.31a2.28,2.28,0,0,0,.71-.16.92.92,0,0,0,.39-.39c.23-.31.23-.31.23-3.36a7.35,7.35,0,0,1,.16-2.43,3.75,3.75,0,0,1,.71.47,15.73,15.73,0,0,0,1.33,1,1,1,0,0,0,.47.08,1.24,1.24,0,0,0,1.09-.63.93.93,0,0,0,0-1.1,14.07,14.07,0,0,0-2-1.87c-1.8-1.49-1.8-1.49-1.8-2.74v-.94l.07.08c1,.7,4.31,3,4.47,3.05a1.76,1.76,0,0,0,.62.15,1.13,1.13,0,0,0,1.18-1.25c0-.7-.08-.7-3.45-3.05-3-2-3-2-3-2.58a11.53,11.53,0,0,1,0-2.35,16,16,0,0,0,1.41.86c.78.55,1.72,1.1,1.88,1.18a1.56,1.56,0,0,0,.54.15,1.31,1.31,0,0,0,.94-.47,1.23,1.23,0,0,0-.08-1.72,22.62,22.62,0,0,0-2-1.41c-.71-.47-1.25-.86-1.57-1,0,0,.08,0,.08-.07.39-.16,3.37-1.26,4.23-1.57a2.52,2.52,0,0,1,.94-.31h.08a12.79,12.79,0,0,1-.24,1.88c-.23,2.19-.31,2.42-.08,2.81a1.27,1.27,0,0,0,2.27-.15,16.5,16.5,0,0,0,.31-2.12c.08-.7.16-1.25.16-1.56.47.47,1.72,1.64,2,2l-.08.07c-.16.24-.24.39-1,5.72-.23,1.33-.23,1.56.16,2a1.27,1.27,0,0,0,.94.39,1.09,1.09,0,0,0,1.09-.7c.08-.24.24-1,.86-5,0-.16.08-.39.08-.47a3.91,3.91,0,0,1,.71.63,6.34,6.34,0,0,1,.86.93h0c-.08.24-.32,2.59-.32,2.59-.23,2.58-.23,2.58.16,3.05a1.33,1.33,0,0,0,.94.39,1.12,1.12,0,0,0,.55-.16,1.51,1.51,0,0,0,.62-.78c.08-.15.24-2.11.32-3,.47.39,1.48,1.48,1.88,1.88,2.19,2.19,2.34,2.27,2.42,2.27a1.1,1.1,0,0,0,.47.07,2.34,2.34,0,0,0,.63-.15,1.2,1.2,0,0,0,.54-1.65,30.28,30.28,0,0,0-2.19-2.27l-1.8-1.8c.24,0,.63-.07,1.18-.07,1.56-.16,1.88-.24,2.19-.71a1.18,1.18,0,0,0-.16-1.56,1.11,1.11,0,0,0-1-.39c-.39,0-1.09.07-2.26.15-.79.08-1.34.16-1.73.16-.7,0-.86-.16-1.48-.78a3.91,3.91,0,0,1-.63-.71.29.29,0,0,0,.24-.08c.31-.07,1.56-.31,2.89-.54,2.58-.47,2.82-.55,3.05-1.1a1.24,1.24,0,0,0-.39-1.64,1.5,1.5,0,0,0-.7-.16,12.77,12.77,0,0,0-2.19.31c-1.49.32-4.7.86-5.09.94a6.71,6.71,0,0,1-1.17-1.09c-.32-.32-.79-.71-.71-.86s.78-.32,1.57-.47c1.87-.39,2.11-.47,2.34-.63a1.25,1.25,0,0,0,.47-1.33,1.26,1.26,0,0,0-1.09-.86h-.08c-.31,0-.94.16-2.43.39-.86.16-1.64.31-1.95.39l.31-.62a2.55,2.55,0,0,0,.31-.71s.16-.31.32-.7.62-1.33.94-2a5.22,5.22,0,0,1,.54-1,10.14,10.14,0,0,1,1.18,1.48,16.24,16.24,0,0,0,1.56,1.8,1.28,1.28,0,0,0,.71.16,1.25,1.25,0,0,0,.7-.16,1.22,1.22,0,0,0,.39-1.56,12.05,12.05,0,0,0-1-1.33,3.92,3.92,0,0,0-.47-.55,8.38,8.38,0,0,1-.71-.94h2.74a.58.58,0,0,0,.16.39c.15.31,3.52,5,3.83,5.32a1.24,1.24,0,0,0,1,.47,1.13,1.13,0,0,0,1-.62,1.24,1.24,0,0,0,0-1.26c-.08-.15-2.43-3.44-3.06-4.3h2.12c.08,0,.08,0,.15.16.24.31,2.74,3.36,3.06,3.6a1.17,1.17,0,0,0,.86.31h.31a1.25,1.25,0,0,0,.86-1.72c-.08-.16-.7-.94-1.1-1.49a4.84,4.84,0,0,1-.54-.78,7.56,7.56,0,0,1,2.5-.16c3.05,0,3.13,0,3.44-.16A1,1,0,0,0,235.94,411.42Zm77.4-68.24c-.39-.47-.63-.55-1.72-.63a3.56,3.56,0,0,0-2,.23c-.7.4-.7.4-1,3.29-.15,1.64-.47,3.37-.54,3.84a13.36,13.36,0,0,1-3.37,5.4c-1.49,1.56-4.54,4.22-4.69,4.06,0,0-.4-1-.86-2.11a36.63,36.63,0,0,0-4.23-7.67c-4.54-7-4.77-7.59-4.62-11a6.9,6.9,0,0,1,.78-3.6,9.68,9.68,0,0,1,1.65-2.43c.78-.78.94-.86,1.33-.7a8.37,8.37,0,0,1,2.58,2.66c.55,1.25,1,1.56,2.66,1.64s2.58-.23,2.74-.94a4.1,4.1,0,0,0-.08-1.33c-.78-3.67-4.22-5.87-9.08-5.87a13.3,13.3,0,0,0-9.23,3.53c-4.23,4-5.32,8.84-3.21,14.39.71,1.88.71,1.88-.55,4.07-2.5,4.39-6.73,10.8-7.2,10.8-.31,0-.78-2.42-.93-4.61-.08-1,0-3.06.07-4.54.32-4.38.55-6.11,2.66-17.61a25,25,0,0,0,.32-3.52c0-1.8,0-1.88-.55-2.35a5.21,5.21,0,0,0-3.6-.86,4.58,4.58,0,0,0-4,2.11c-.63.86-.78,1-1.18.94a16.53,16.53,0,0,0-7.74-.39,20.32,20.32,0,0,0-14,9,22.36,22.36,0,0,0-2.66,5.56,16.54,16.54,0,0,0-.31,6.18,9.26,9.26,0,0,0,5,6.26c.71.31,1.33.7,1.33.86s-.39,1.25-.78,2.5c-2.42,6.58-7.51,16.52-8.37,16.52-.24,0-.86-1.49-1.25-2.74a20.22,20.22,0,0,1-.63-5.95c0-4.07.08-4.38,4.3-26.69,1.41-7.35,1.88-12.83,1.49-15.33-.47-2.66-1.25-3.84-3-4.7a10.6,10.6,0,0,0-6.26,0c-2.66,1-6.34,4.23-8.53,7.67-1.18,1.8-1.18,1.8-1.8.94-1.64-2.19-5.4-2.66-8.53-1.18a16.63,16.63,0,0,0-5.32,5.25c-1.49,2.27-1.41,2.35-1.8-1.18-.55-4.3-1.65-5.4-5.4-5.4a6,6,0,0,0-2.35.4c-2,.93-2.19,1.64-2.27,9.62,0,6.34,0,6.34-1.25,9.08-.63,1.56-2,4.85-2.9,7.28s-2.11,5.47-2.58,6.65c-1.56,3.83-4.46,9.23-4.77,8.84-.47-.55-1.33-6.49-1.57-11.66-.47-8.22.71-34,2-42.49.15-.86.15-.86,2.82-.71a30.48,30.48,0,0,0,12.2-1.72c3.13-1.09,3.68-1.8,2-2.5-.63-.32-1.1-.32-4.07-.08-5.56.39-7.83.47-10.17.23-1.26-.15-2.27-.23-2.27-.23s.07-1.41.23-3.05c.31-3.68.39-9.16.08-10-.31-1-1.33-1.49-3.21-1.56-2.58-.16-3.83.39-4.62,1.87-.47,1-.86,2.51-1.95,7.83-.94,4.54-.94,4.54-2.66,4.85-4.62.86-9.24,3.13-11.66,5.71-.71.79-.86,1.1-.86,1.49.07.71,1.09,1.25,2.5,1.25s2.19-.39,3.83-1.64c1.8-1.41,6.73-3.68,7.05-3.21.08.08-.32,2.35-.79,5.17a125.7,125.7,0,0,0-2,19.17c0,2,0,2-2.35,4-1.25,1.1-3.44,3.05-4.77,4.38s-2.58,2.35-2.66,2.35c-.32,0-2.43-4.07-3.13-5.95a16.21,16.21,0,0,1-1.1-7c.24-1.49,1.25-4,1.65-4a2.25,2.25,0,0,1,.78.47c1.25.94,4.46.55,4.69-.47.24-1.41-.86-2.9-2.74-3.76a7.18,7.18,0,0,0-3.36-.62,12.66,12.66,0,0,0-6.65,1.33,9.67,9.67,0,0,0-5.79,8.92,13,13,0,0,0,1.17,5.63c.7,1.72.7,1.72-.55,3.76-2.42,4-4,6.26-4.14,6.18s-.24-9.31,0-15c.23-6.19-.08-7.75-2-8.53a8.94,8.94,0,0,0-5.17-.08c-1.56.7-2.34,2.58-3.13,7.12-1,6.49-1,11.11.24,15.88.39,1.73.39,1.73-.16,3.06-.94,2.27-3.75,8.6-6,13-1.95,4.07-3.67,7-4.46,7.67-.54.47-.62.31-1.09-1.73-.32-1.17-.32-2.26-.32-5.32a105.27,105.27,0,0,1,1.18-14.71c.86-6.34,1.09-11.82.55-13.85-.39-1.57-.86-2.27-2-2.82-.7-.39-1.1-.47-2.9-.39a16.8,16.8,0,0,0-3.2.31,4,4,0,0,1-1.26.24,11.43,11.43,0,0,1,.24-2.11,33.72,33.72,0,0,0,.08-9.71,10,10,0,0,0-1.88-4.07,8,8,0,0,0-1.49-1.09c-.86-.47-1.17-.55-3.13-.55s-2.27,0-3.44.63c-3,1.48-4.54,4.53-4.23,8.45.32,4.38,2.51,8.53,5.32,10.17a10.17,10.17,0,0,0,2.43.86c1.17.24,1.41.39,1.33.63s-.39,1.33-.7,2.58a90.42,90.42,0,0,1-6.19,16.43,54.88,54.88,0,0,1-7.67,12.21c-.86,1-.86,1-1,.39-.39-1.56.47-6.65,2.42-13.46,3.6-12.91,4.15-17.21,2.59-21.2a8.72,8.72,0,0,0-4.46-4.39,12.42,12.42,0,0,0-6.73-.08,14.68,14.68,0,0,0-5.4,3.92c-1.57,1.64-1.57,1.64-1.65,1.09-.08-.31-.15-3.83-.23-7.82-.16-7.28-.16-7.28,1-8a37,37,0,0,0,10.18-9.47,19.7,19.7,0,0,0,3.68-10.72c0-4-1.41-6.58-4.31-8-1-.47-1.33-.54-3.6-.54a8.62,8.62,0,0,0-3.91.54c-5.48,2-9.31,6.73-12,15-1.65,4.93-2.19,8.29-2.58,15.65-.32,5.24,0,9.47,1,16.51.79,5.32.79,5.32-.23,7.28-2.82,5.63-7.91,14.56-9.63,16.82-2.27,3.13-5.32,5.95-7.51,7-.94.47-.94.47-1.8-.24-2.19-1.64-5.48-7.27-6.89-11.74-2.11-6.65-3-13-3-22.22,0-10.88,1.72-23.16,4.46-31.69,2.58-8.06,6.34-14.09,10.33-16.59.94-.55,1.72-.4,3.21.7,2.19,1.64,3.91,4.46,4.93,8.14.47,1.8.55,2.19.55,6.65,0,2.58.07,4.85.07,5s.32.39.71.55c1.33.54,3.52.23,4-.63.39-.63.7-5.32.55-8.22A19.44,19.44,0,0,0,65.42,292c-3.83-5.33-11.27-6.66-18.62-3.21-8.06,3.75-14.25,12.36-18.78,26.06-3.45,10.48-4.93,19.33-4.62,27.7.62,17.84,6,29.58,15.57,34.35,5.71,2.82,12.68,3.06,17.84.47,3.06-1.48,5.64-4.54,8.93-10.4.78-1.49,2.42-4.31,3.6-6.27,2-3.52,2.11-3.59,2.27-3.05a3.58,3.58,0,0,0,2.58,2.59,8.52,8.52,0,0,0,4,.07A3.17,3.17,0,0,0,80.45,358c.08-.47.08-2.81,0-5.24-.16-4.38-.16-4.46.31-6A20.22,20.22,0,0,1,88,336.6c1.64-1,2.11-1,2.74.16.47.78.47,1.09.47,2.66,0,2.27-.55,4.3-2.74,11.11-3.21,10.1-3.76,12.37-3.76,17.14a20.22,20.22,0,0,0,.32,4.62c.7,2.81,1.88,4.54,3.67,5.32a6.59,6.59,0,0,0,2.9.39,5.6,5.6,0,0,0,3.13-.55c1.41-.7,2.82-2.19,5-5.48a95.76,95.76,0,0,0,12.36-28.09c.47-1.64.86-3.05.86-3.13a7.84,7.84,0,0,1,3-.63,9.4,9.4,0,0,1-.47,1.33,79.41,79.41,0,0,0-4.54,16.36c-1,6.49-.47,12.13,1.72,16.36a13.81,13.81,0,0,0,5.32,5.94,8.42,8.42,0,0,0,6.5.39,8.12,8.12,0,0,0,3.68-3.6c1.48-2.89,6.34-13.22,7.43-15.65.71-1.48,1.25-2.81,1.25-2.81a4.58,4.58,0,0,1,.79.23,8.83,8.83,0,0,0,6.33-.08,12.91,12.91,0,0,0,1.49-1.09,88.65,88.65,0,0,0,5.17-7.67c.15-.32.54.23,2.11,3.05,1,1.88,1.88,3.44,1.88,3.6a8.5,8.5,0,0,1-1.41,1.8c-4.62,5.32-7.59,10.09-8.45,13.69-1.65,6.66,2.34,11.35,9.31,11a13.76,13.76,0,0,0,10.49-5.71,17.41,17.41,0,0,0,3.44-8.14c.7-4-.47-9.78-3-15.26-.94-2-.94-2,.23-3.13.63-.63,2.43-2.19,3.91-3.6s2.74-2.51,2.82-2.51a4.54,4.54,0,0,1,.31,1.65c.39,5.24.63,7.51,1,10.09,1.1,6.34,2.9,11.19,5.79,14.95,1.8,2.35,3,3,5.64,3a5.39,5.39,0,0,0,4.3-1.48c1.8-1.8,3.37-4.7,5.16-9.79,1.49-4.14,3.37-8.92,3.6-9.15s.32.55.79,3.13a4.33,4.33,0,0,0,1.64,2.89,4.13,4.13,0,0,0,3,1,3.72,3.72,0,0,0,2.9-1.09c1-1,1.17-1.49,1.49-4.93a46.22,46.22,0,0,1,6.65-19.8c1.64-2.51,2.19-3.13,2.42-2.9a9.22,9.22,0,0,1,.47,2c.32,2.19.16,6.49-.39,12.44-.47,4.93-.39,5.71.47,6.1a4,4,0,0,0,4.15-.47c.63-.62,1.17-2.81,1.8-7,.63-4.38.86-5.4,1.8-7.83a30.1,30.1,0,0,1,6.81-11.19c1.56-1.4,1.95-1.64,1.95-1.09,0,.23-.93,3.28-2.11,6.73-4,12.13-5.63,20.27-5.63,27.39,0,9.23,3.75,18.08,8.53,20.34a5.69,5.69,0,0,0,3.28.63c3.6,0,4.54-.78,7.44-6.1a93,93,0,0,0,6.49-14.48c.63-2,.63-2,1.41-2.19,2.19-.63,4.38-3,7-7.36,1.17-1.95,1.25-1.95,1.4.55.47,5.79,3.68,11.74,7.36,13.46a5.31,5.31,0,0,0,3,.55c2.19,0,3.21-.39,4.39-1.57a97.87,97.87,0,0,0,5.94-8.53,9.59,9.59,0,0,1,1.57-2.19,69.46,69.46,0,0,1,4,6.58,42.67,42.67,0,0,1,3,6.49,7.61,7.61,0,0,1-1.72,1.25c-6.42,4-9.78,7.36-10.56,10.65a4.16,4.16,0,0,0,.23,3.13,6.35,6.35,0,0,0,4.46,2.73,21.29,21.29,0,0,0,6.26-.31,17.85,17.85,0,0,0,8.69-5.48,18.87,18.87,0,0,0,3.29-12.2c-.16-2.27-.16-2.27,1.64-3.53a36.47,36.47,0,0,0,8.84-8.21c1.49-2.19,1.88-3.76,2.12-7.75C313.73,343.8,313.73,343.72,313.34,343.18ZM326.72,270a.64.64,0,0,0-.23-.71h0c-.24-.31-.24-.31-3.06-.31h-2.81c.15-.24.55-.78,1-1.41a17.07,17.07,0,0,0,1.18-1.72.87.87,0,0,0-.08-.78.93.93,0,0,0-.7-.4.6.6,0,0,0-.4.08c-.23.08-.39.32-2.58,3.29-.62.86-.62.86-1.17.86H316c-.16,0-.39,0-.47-.08a12.36,12.36,0,0,1,1.49-2.19c.94-1.17,1.88-2.43,2-2.5a1,1,0,0,0-.07-1.1.79.79,0,0,0-.71-.31.85.85,0,0,0-.7.31c-.08.08-1.25,1.57-2.35,3s-2,2.59-2.19,2.82H311.7a2.41,2.41,0,0,1-.94-.08,5.1,5.1,0,0,1,.47-.86c.7-1.09.7-1.17.78-1.48a1.29,1.29,0,0,0-.08-.55.79.79,0,0,0-.63-.39h-.15a.72.72,0,0,0-.63.31,14.38,14.38,0,0,0-1,1.57,12.07,12.07,0,0,1-.93,1.4h-3.13c-1.26,0-2.27,0-2.35-.23s.62-.86,1.48-1.8c1.18-1.17,2.12-2.11,2.27-2.19h0a.6.6,0,0,1,.32.08c1.17.23,3.21.62,3.28.62a1.18,1.18,0,0,0,.79-.47.88.88,0,0,0,0-.86c-.16-.39-.47-.47-1.72-.7a4.76,4.76,0,0,1-1-.24,6.85,6.85,0,0,0,.7-.78,1.63,1.63,0,0,1,1.49-.7,17.58,17.58,0,0,1,2.82.31c1.95.23,3.52.47,3.67.47h0a.83.83,0,0,0,.79-.71.8.8,0,0,0-.47-.94,22.42,22.42,0,0,0-3.13-.46c-1.33-.16-2.27-.32-2.66-.32.15-.15.47-.55.94-1a6.82,6.82,0,0,1,1.17-1.1h.08c.23.08,4.46.55,4.69.55s.32-.08.39-.08a.89.89,0,0,0,.47-.86.77.77,0,0,0-.54-.78,14.51,14.51,0,0,0-2-.32c-.7-.08-1.17-.15-1.49-.15l1.72-1.73a20.2,20.2,0,0,0,2-2.11,1,1,0,0,0,.08-.94,1,1,0,0,0-.79-.55h-.23c-.24.08-.47.24-2.27,2.12-.86.86-1.56,1.56-1.88,1.8a10.26,10.26,0,0,1-.23-1.49c-.32-2-.32-2.11-.47-2.35a1,1,0,0,0-.78-.39h0a.89.89,0,0,0-.87.94c0,.16.63,4.3.79,4.85,0,.08-.47.47-1.18,1.25-.39.4-.7.71-.86.71s-.31-1.1-.55-2.51c0-.15-.39-3.13-.39-3.2a2.34,2.34,0,0,0-.47-.55c-.07-.08-.31-.08-.39-.08a.85.85,0,0,0-.86.7c0,.08,0,.47.39,3.92s.47,3.6-.39,4.54l-.78.78a5.36,5.36,0,0,1-.24-.94c-.15-.55-.31-1.25-.39-1.41a.85.85,0,0,0-.78-.55.82.82,0,0,0-.86.86c0,.16.55,2.59.78,3.53-.08.15-.78.86-2.19,2.27l-2,2v-2.82a12.87,12.87,0,0,1,.15-2.89c.16-.47.55-.71,1.26-1.26a10.44,10.44,0,0,0,1.64-1.17,1,1,0,0,0,0-.94.87.87,0,0,0-.78-.47h-.16c-.16,0-.47.16-1.33.78-.39.32-.78.47-.94.63V258c0-.78,0-.78,2.82-3,.31-.23,2.89-2.19,3-2.35s.08-.31.16-.47a1.27,1.27,0,0,0-.08-.54c-.08-.08-.16-.24-.24-.32a1.08,1.08,0,0,0-.54-.15.54.54,0,0,0-.32.07c-.15.08-1.72,1.26-2.34,1.73-1.1.86-2,1.56-2.27,1.72v-1.33a4.32,4.32,0,0,1,.15-1.57,8.61,8.61,0,0,1,1.41-1.33l.31-.23c2.12-1.72,2.12-1.72,2.12-2.12V248a.88.88,0,0,0-.24-.63.86.86,0,0,0-.62-.24h-.08c-.31,0-.31,0-1.88,1.26l-.16.08c-.47.39-.86.7-1.09.86v-2.59c0-2.89,0-2.89-.16-3a.86.86,0,0,0-.78-.47.71.71,0,0,0-.55.24h0c-.31.23-.31.23-.31,3.05v2.82c-.24-.16-.78-.55-1.41-1a17.07,17.07,0,0,0-1.72-1.18c-.08,0-.24-.07-.32-.07a1.08,1.08,0,0,0-.78.39,1.17,1.17,0,0,0-.08.86c.08.23.32.39,3.29,2.58.47.31.71.47.78.63a1.48,1.48,0,0,1,.08.7V254c0,.16,0,.39-.08.47h0a10.88,10.88,0,0,1-2.19-1.56c-1.17-.94-2.42-1.88-2.5-2a1.14,1.14,0,0,0-.47-.16.88.88,0,0,0-.63.24.72.72,0,0,0-.31.63.86.86,0,0,0,.31.7c.08.08,1.57,1.25,3,2.35s2.58,2,2.81,2.19v1.25a2.74,2.74,0,0,1-.07.94h0c-.16,0-.4-.16-.87-.47-1.09-.7-1.17-.7-1.48-.7h-.16a.44.44,0,0,0-.39.15.79.79,0,0,0-.39.63,1.35,1.35,0,0,0,.23.78,13,13,0,0,0,1.57,1,13.15,13.15,0,0,1,1.41.94c.08.15,0,1,0,3.13,0,1.33,0,2.35-.24,2.35s-.86-.63-1.72-1.49c-1.17-1.18-2.11-2.11-2.19-2.27a1.16,1.16,0,0,1,.08-.31c.23-1.18.62-3.21.62-3.29a1.14,1.14,0,0,0-.47-.78.81.81,0,0,0-.39-.08.58.58,0,0,0-.39.08c-.39.15-.47.47-.7,1.72a4.93,4.93,0,0,1-.24,1,6.88,6.88,0,0,0-.78-.71c-.86-.86-.86-.86-.39-4.3.08-.39.47-3.52.47-3.76a.84.84,0,0,0-.86-.78.86.86,0,0,0-.79.47,21.64,21.64,0,0,0-.46,3.13c-.16,1.25-.32,2.27-.32,2.66-.15-.16-.55-.47-1-.94-1.09-1.1-1.09-1.1-1.09-1.25s.55-4.46.55-4.7c0-.08-.08-.31-.08-.39a.87.87,0,0,0-.78-.47,1,1,0,0,0-.86.55,14.23,14.23,0,0,0-.32,2c-.08.62-.15,1.17-.15,1.48l-1.73-1.72a19.79,19.79,0,0,0-2.11-2,1.12,1.12,0,0,0-.55-.16.7.7,0,0,0-.39.08.85.85,0,0,0-.47,1c.08.23.24.46,2.12,2.26.86.87,1.56,1.57,1.8,1.88a9.87,9.87,0,0,1-1.49.24c-2,.31-2.11.31-2.35.47a.79.79,0,0,0-.39.78.89.89,0,0,0,.94.86c.16,0,4.3-.63,4.85-.78.08.08.55.47,1.25,1.17.39.39.79.78.71.86a6.81,6.81,0,0,1-2.51.47l-3.21.39a3.24,3.24,0,0,0-.54.47c-.08.08-.08.32-.08.39a.86.86,0,0,0,.7.87h.08c.24,0,1.41-.16,3.84-.47,1.48-.16,2.42-.32,3-.32a1.73,1.73,0,0,1,1.49.71l.78.78a4.72,4.72,0,0,1-.94.23c-.55.16-1.25.32-1.41.4a.85.85,0,0,0-.55.78.82.82,0,0,0,.86.86c.24,0,2.59-.55,3.53-.78a28.94,28.94,0,0,1,2.26,2.19l2,2h-2.9a12.92,12.92,0,0,1-2.89-.15c-.47-.16-.71-.55-1.25-1.26a9.89,9.89,0,0,0-1.18-1.64,1.05,1.05,0,0,0-.47-.16.84.84,0,0,0-.7.32,1.23,1.23,0,0,0-.24.7c0,.16.16.47.79,1.33.31.39.47.78.62.94h-1.48c-.79,0-.79,0-3-2.82-.23-.31-2.19-2.89-2.35-3s-.31-.08-.47-.16h-.15a.67.67,0,0,0-.39.08c-.08.08-.24.16-.32.24a1.12,1.12,0,0,0-.07.86c.07.15,1.25,1.72,1.72,2.34.78,1,1.56,2,1.72,2.27h-1.33a4.34,4.34,0,0,1-1.57-.15,8.61,8.61,0,0,1-1.33-1.41l-.23-.31c-1.65-2.12-1.72-2.12-2-2.12h-.07a.89.89,0,0,0-.94.86h0c0,.32,0,.32,1.25,1.88l.08.16c.39.47.7.86.86,1.09h-2.58c-2.9,0-2.9,0-3.06.16a.81.81,0,0,0-.39.63.62.62,0,0,0,.24.7h0c.23.31.23.31,3,.31h2.82c-.16.24-.55.79-1,1.41a17.07,17.07,0,0,0-1.18,1.72,1,1,0,0,0,.08.79,1,1,0,0,0,.71.39.58.58,0,0,0,.39-.08c.23-.08.39-.31,2.58-3.29.63-.86.63-.86,1.17-.86h1.88c.16,0,.47,0,.47.08a12.2,12.2,0,0,1-1.48,2.19c-.94,1.18-1.88,2.43-2,2.51a.92.92,0,0,0,.08,1.09.74.74,0,0,0,.7.31A.84.84,0,0,0,283,276c.07-.08,1.25-1.56,2.34-3,1.18-1.57,2-2.58,2.19-2.82h1.26a2.41,2.41,0,0,1,.94.08,5.52,5.52,0,0,1-.47.86c-.71,1.09-.71,1.17-.71,1.49a1.27,1.27,0,0,0,.08.54.8.8,0,0,0,.63.4h.15a.71.71,0,0,0,.63-.32,13.41,13.41,0,0,0,1-1.56,12.06,12.06,0,0,1,.94-1.41h3.13c1.25,0,2.27,0,2.34.23s-.62.86-1.48,1.8c-1.18,1.18-2.12,2.12-2.27,2.19h0a.68.68,0,0,1-.32-.07c-1.17-.24-3.2-.63-3.28-.63a1.18,1.18,0,0,0-.79.47.88.88,0,0,0,0,.86c.16.39.47.47,1.73.7a4.63,4.63,0,0,1,1,.24,9.3,9.3,0,0,0-.7.78c-.55.55-.7.71-1.49.71a17.77,17.77,0,0,1-2.81-.32c-1.65-.23-3.45-.47-3.68-.47h0a.85.85,0,0,0-.79.71.81.81,0,0,0,.47.94,21,21,0,0,0,3.13.47c1.26.15,2.27.31,2.67.31-.16.16-.47.55-.94,1a7.19,7.19,0,0,1-1.18,1.09h-.08c-.23-.08-4.46-.55-4.69-.55-.08,0-.31.08-.39.08a.89.89,0,0,0-.47.86.77.77,0,0,0,.55.79,16.28,16.28,0,0,0,2,.31c.71.08,1.18.16,1.49.16l-1.72,1.72a20.2,20.2,0,0,0-2,2.11,1,1,0,0,0-.08.94,1,1,0,0,0,.79.55h.23c.24-.08.47-.24,2.27-2.12.86-.86,1.57-1.56,1.88-1.8a9,9,0,0,1,.23,1.49c.32,2,.32,2.11.47,2.35a1.06,1.06,0,0,0,.79.47h0a.89.89,0,0,0,.86-.94c0-.16-.63-4.3-.79-4.85.08-.08.47-.55,1.18-1.25.39-.4.7-.71.86-.71s.31,1.1.55,2.51c0,0,.39,3.13.39,3.2a2.6,2.6,0,0,0,.47.55c.08.08.31.08.39.08a.85.85,0,0,0,.86-.7c0-.08,0-.47-.39-3.92-.47-3.6-.47-3.6.39-4.54l.78-.78a5.36,5.36,0,0,1,.24.94c.15.55.31,1.25.39,1.41a.85.85,0,0,0,.78.55.82.82,0,0,0,.86-.86c0-.16-.55-2.59-.78-3.53a31.43,31.43,0,0,1,2.19-2.26l2-2v2.82a12.87,12.87,0,0,1-.15,2.89c-.16.47-.55.71-1.25,1.26a11.07,11.07,0,0,0-1.65,1.17,1,1,0,0,0,0,.94.87.87,0,0,0,.79.47h.15c.16,0,.47-.16,1.33-.78.39-.32.79-.47.94-.63v1.49c0,.78,0,.78-2.82,3-.07.08-2.81,2.19-3,2.35s-.08.31-.16.47a1.34,1.34,0,0,0,.08.55c.08.07.16.23.24.31a1.08,1.08,0,0,0,.54.15.54.54,0,0,0,.32-.07c.15-.08,1.72-1.26,2.35-1.73,1-.78,1.95-1.56,2.27-1.72v1.33a4.06,4.06,0,0,1-.16,1.57,8.61,8.61,0,0,1-1.41,1.33l-.31.23c-2.12,1.73-2.12,1.73-2.12,2.12v.07a.82.82,0,0,0,.86.87h.08c.32,0,.32,0,1.88-1.26l.16-.07c.47-.4.86-.71,1.09-.87v2.59c0,2.89,0,2.89.16,3.05s.31.39.55.39h.15a.93.93,0,0,0,.86-.55,14.67,14.67,0,0,0,.08-3v-2.58c.24.15.79.55,1.41,1a17.08,17.08,0,0,0,1.72,1.17c.08,0,.24.08.32.08a1.11,1.11,0,0,0,.78-.39.83.83,0,0,0,0-.86c-.08-.24-.31-.4-3.29-2.59a2.58,2.58,0,0,1-.78-.62,1.55,1.55,0,0,1-.08-.71V285c0-.16,0-.47.08-.47h0a12.36,12.36,0,0,1,2.19,1.49c1.17.94,2.43,1.88,2.51,1.95a1.06,1.06,0,0,0,.46.16.92.92,0,0,0,.63-.23.7.7,0,0,0,.31-.63.82.82,0,0,0-.31-.7c-.08-.08-1.56-1.26-3-2.35-1.57-1.18-2.59-2-2.82-2.19v-1.25a2.38,2.38,0,0,1,.08-.94h0c.15,0,.39.15.86.47,1.09.7,1.17.7,1.49.7h.15a.67.67,0,0,0,.39-.08.77.77,0,0,0,.39-.62,1.31,1.31,0,0,0-.23-.79,13.38,13.38,0,0,0-1.57-1,13,13,0,0,1-1.4-.94v-3.13c0-1.33,0-2.35.23-2.35s.86.62,1.72,1.49c1.18,1.17,2.12,2.11,2.19,2.26a1.42,1.42,0,0,1-.07.32c-.24,1.17-.63,3.21-.63,3.28a1.18,1.18,0,0,0,.47.79.83.83,0,0,0,.39.08.57.57,0,0,0,.39-.08c.39-.16.47-.47.71-1.72a4.34,4.34,0,0,1,.23-1,7.83,7.83,0,0,0,.78.7c.86.86.86.86.39,4.31-.15,1.33-.46,3.52-.46,3.75a.84.84,0,0,0,.86.79.87.87,0,0,0,.78-.47,21,21,0,0,0,.47-3.13c.15-1.33.31-2.27.31-2.66.16.15.55.46,1,.93,1.09,1.1,1.09,1.1,1.09,1.26s-.54,4.46-.54,4.69c0,.08.07.31.07.39a.86.86,0,0,0,.79.47,1,1,0,0,0,.86-.55,14.43,14.43,0,0,0,.31-1.95c.08-.63.16-1.18.16-1.49l1.72,1.72a21.28,21.28,0,0,0,2.11,2,1.12,1.12,0,0,0,.55.15.77.77,0,0,0,.39-.07.85.85,0,0,0,.47-1c-.08-.24-.23-.47-2.11-2.27-.86-.86-1.57-1.57-1.8-1.88a8.64,8.64,0,0,1,1.48-.23c2-.32,2.12-.32,2.35-.47a.79.79,0,0,0,.39-.79.89.89,0,0,0-.94-.86c-.15,0-4.3.63-4.85.79-.08-.08-.55-.47-1.25-1.18-.39-.39-.78-.78-.7-.86a6.9,6.9,0,0,1,2.5-.47l3.21-.39a2.87,2.87,0,0,0,.55-.47.77.77,0,0,0,.07-.39.85.85,0,0,0-.7-.86h-.08c-.23,0-1.41.16-3.83.47-1.49.15-2.43.31-3,.31a1.71,1.71,0,0,1-1.48-.7l-.79-.79a6.74,6.74,0,0,1,.94-.23c.55-.16,1.26-.31,1.41-.39a.84.84,0,0,0,.55-.78.82.82,0,0,0-.86-.86c-.24,0-2.58.54-3.52.78a30.19,30.19,0,0,1-2.27-2.19l-2-2h2.82a12.18,12.18,0,0,1,2.9.16c.47.15.7.55,1.25,1.25a9.77,9.77,0,0,0,1.17,1.64,1.14,1.14,0,0,0,.47.16.87.87,0,0,0,.71-.31,1.33,1.33,0,0,0,.23-.71c0-.15-.16-.47-.78-1.33-.31-.39-.47-.78-.63-.94H312c.78,0,.78,0,3,2.82.24.31,2.19,2.9,2.35,3s.31.08.47.16H318a.7.7,0,0,0,.39-.08c.08-.08.23-.15.31-.23a1.09,1.09,0,0,0,.08-.86c-.08-.16-1.25-1.72-1.72-2.35-.79-1-1.57-2-1.72-2.27h1.33a4,4,0,0,1,1.56.16,7.47,7.47,0,0,1,1.33,1.41l.24.31c1.64,2.11,1.64,2.11,2,2.11h.08a.89.89,0,0,0,.94-.86h0c0-.31,0-.31-1.25-1.88l-.08-.15c-.39-.47-.71-.87-.86-1.1h2.58c2.9,0,2.9,0,3.05-.16A.8.8,0,0,0,326.72,270Zm-63.93,62.44c-2.59-.54-6,1.49-8.06,4.86a20.58,20.58,0,0,0-2.2,6.8,43.88,43.88,0,0,0-.15,8.38c.15.47.15.47.78-.24a17.94,17.94,0,0,0,1.72-2c1-1.33,5.4-8.61,7.12-11.74a36.11,36.11,0,0,0,1.65-3.44C264.59,332.85,264.59,332.85,262.79,332.45ZM80.06,319.23c.47-.39,1.72-1.57,2.81-2.66,4-4.07,6.26-8.38,6.58-12.76.15-2.81-.39-5-1.8-6.41-.79-.79-1.1-.79-2.19-.08a12.54,12.54,0,0,0-3.76,4.61c-1.49,3.13-2.19,7.05-2.43,13.78C79.2,319.93,79.2,319.93,80.06,319.23Z"/><path class="cls-2" d="M218.88,82.19a8.06,8.06,0,0,0-3.6-.86H189.15a46,46,0,0,0,3.28-3.6l.08-.08A62.63,62.63,0,0,0,206,52.92a.27.27,0,0,1,.08-.23,54.12,54.12,0,0,0,1.8-13.7A38.9,38.9,0,0,0,205,24.36,38.32,38.32,0,0,0,193.53,8a31,31,0,0,0-9-5.08A46.47,46.47,0,0,0,175.92.57,47.71,47.71,0,0,0,170.13,0a51.26,51.26,0,0,0-6.89.31,48.36,48.36,0,0,0-7.43,1.57,39.05,39.05,0,0,0-8.92,3.83,36.85,36.85,0,0,0-8.06,6.73A39.68,39.68,0,0,0,131.78,24a42.78,42.78,0,0,0-3,15,54.12,54.12,0,0,0,1.8,13.7.27.27,0,0,0,.08.23,62.93,62.93,0,0,0,13.46,24.81l.08.08c1,1.17,2.11,2.42,3.28,3.6H121.45a8.91,8.91,0,0,0-3.52.78,8.27,8.27,0,0,0-4.77,7.51v41.48H223.34V89.7A7.86,7.86,0,0,0,218.88,82.19Zm-37.32-.78H155.34a80,80,0,0,1-8.22-8.53c0-.08-.08-.08-.08-.16a56.24,56.24,0,0,1-11.73-24,.29.29,0,0,0-.08-.24,45.17,45.17,0,0,1-.94-9.39A34.3,34.3,0,0,1,162.77,5.34a34.81,34.81,0,0,1,23.17,4.31,35.63,35.63,0,0,1,9.7,8.68A31.93,31.93,0,0,1,201,28.58a36.65,36.65,0,0,1,1.65,10.49,46.65,46.65,0,0,1-.94,9.47.26.26,0,0,1-.08.23,55.91,55.91,0,0,1-11.74,23.95c0,.08-.08.08-.08.16A87.48,87.48,0,0,1,181.56,81.41Z"/></g></g></svg>